<?xml version="1.0" encoding="UTF-8" standalone="no"?>
<svg
   width="0.546667in"
   height="0.656667in"
   viewBox="0 0 164 197"
   version="1.1"
   id="svg1"
   sodipodi:docname="cv.svg"
   inkscape:version="1.3.2 (091e20ef0f, 2023-11-25)"
   xmlns:inkscape="http://www.inkscape.org/namespaces/inkscape"
   xmlns:sodipodi="http://sodipodi.sourceforge.net/DTD/sodipodi-0.dtd"
   xmlns="http://www.w3.org/2000/svg"
   xmlns:svg="http://www.w3.org/2000/svg">
  <defs
     id="defs1" />
  <sodipodi:namedview
     id="namedview1"
     pagecolor="#505050"
     bordercolor="#eeeeee"
     borderopacity="1"
     inkscape:showpageshadow="0"
     inkscape:pageopacity="0"
     inkscape:pagecheckerboard="0"
     inkscape:deskcolor="#505050"
     inkscape:document-units="in"
     showgrid="false"
     inkscape:zoom="18.63895"
     inkscape:cx="26.262209"
     inkscape:cy="31.520016"
     inkscape:window-width="3440"
     inkscape:window-height="1381"
     inkscape:window-x="1920"
     inkscape:window-y="316"
     inkscape:window-maximized="1"
     inkscape:current-layer="svg1" />
  <path
     id="Selection"
     fill="none"
     stroke="#000000"
     stroke-width="1"
     d="M 9.01,0.65 C 9.01,0.65 49,0 49,0 c 0,0 80,0 80,0 5.26,0 23.17,-0.59 27,0.89 2.52,0.98 4.57,2.72 5.83,5.13 1.38,2.65 1.17,6.06 1.17,8.98 0,0 0,126 0,126 0,2.09 0.12,5.06 -0.6,7 -1.8,4.88 -17.65,18.26 -22.4,23 0,0 -13,12.04 -13,12.04 -8.72,8.34 -9.53,12.94 -22,12.96 0,0 -89,0 -89,0 C 2.39,195.98 1.02,191.81 1,179 1,179 1,45 1,45 1,45 1,16 1,16 1.01,8.49 1.4,4 9.01,0.65 Z M 146,16 c 0,0 -128,0 -128,0 0,0 0,165 0,165 0,0 87,0 87,0 0,-7.89 -1.49,-25.86 2.7,-31.98 1.61,-2.36 3.69,-4.19 6.3,-5.37 5.75,-2.6 24.76,-1.65 32,-1.65 z m -73,84 c 9.24,1.34 9.73,6.04 3.61,12.81 -3.72,4.12 -10.17,6.08 -15.61,5.67 C 37.36,116.73 37.7,87.75 47.21,78.21 55.86,69.53 75.62,68.2 81,87 c 0,0 -9,2 -9,2 -4.73,-13.83 -19.25,-9.52 -21.53,3 -2.36,12.97 9.43,23.72 18.19,15.58 2.31,-2.13 3.25,-4.74 4.34,-7.58 z m 7,-27 c 0,0 8.58,1.02 8.58,1.02 0,0 4.47,8.98 4.47,8.98 0,0 7.95,22 7.95,22 0,0 12,-32 12,-32 0,0 9,0 9,0 -1.06,6.78 -10.49,29.28 -13.6,37 -1.69,4.19 -4.07,10.24 -9.99,7.43 C 95.6,116.09 93.68,108.9 92.58,106 Z"
     style="display:none" />
  <path
     style="fill:#000000;stroke-width:0"
     d="M 27.703034,0.18002456 C 20.552013,0.17027496 13.400922,0.21372032 6.2511552,0.35337658 5.1297647,0.38728954 3.9926099,0.35819264 2.8810727,0.43149082 1.9265615,0.8688815 0.9781544,1.5851506 0.74147484,2.6662077 0.47235356,3.5764341 0.62394444,4.5396121 0.57063786,5.4738593 0.49999059,20.713744 0.51419247,35.953944 0.54318267,51.19393 c 0.0207134,2.749559 -0.008279,5.501163 0.0658096,8.24937 0.12206687,0.876541 0.31324792,1.890546 1.11559683,2.407711 1.1782117,0.745154 2.6418751,0.627202 3.9759424,0.647488 9.2459265,0.02238 18.4920605,0.02805 27.7379185,-0.01403 0.920236,-0.01141 1.864231,0.0307 2.732717,-0.318279 1.399787,-0.445557 2.280569,-1.69678 3.292354,-2.675832 3.230598,-3.209049 6.682499,-6.186352 9.927393,-9.379186 0.810657,-0.857101 1.742956,-1.640113 2.322136,-2.683508 0.310978,-0.630568 0.138061,-1.359634 0.19934,-2.034339 0.05111,-11.291279 0.0219,-22.582794 0.02585,-33.874168 -0.019,-2.8783556 0.0292,-5.7604567 -0.06161,-8.6364637 C 51.702977,1.7182681 50.749706,0.73812028 49.632603,0.42166404 48.384352,0.15592944 47.088419,0.25269699 45.818257,0.20572844 39.779991,0.16593176 33.741398,0.18458667 27.703034,0.18002456 Z M 26.235383,4.9162003 c 6.885223,1e-7 13.770447,0 20.65567,0 0.04597,1.6713113 0.0066,3.3779906 0.0197,5.0629025 0,11.8805732 0,23.7611462 0,35.6417192 -1.729148,0.02592 -3.49258,-0.057 -5.23537,-0.02235 -1.608569,0.04877 -3.250315,0.01966 -4.813206,0.446107 -0.972865,0.353235 -1.825489,1.067077 -2.350484,1.955749 -0.535574,1.0862 -0.653373,2.321662 -0.738436,3.512889 -0.03937,2.073247 -0.04324,4.150613 0.02909,6.222183 0.188162,0.47926 -0.251849,0.400495 -0.583725,0.388429 -9.212969,0 -18.425937,0 -27.6389046,0 -0.045974,-1.671312 -0.00656,-3.377991 -0.0197,-5.062903 0,-16.041676 0,-32.083353 0,-48.1250287 1.6713113,-0.045974 3.3779906,-0.00656 5.0629026,-0.0197 5.204156,0 10.408312,10e-8 15.612467,0 z"
     id="path1"
     transform="scale(3.1249983)" />
  <path
     style="fill:#000000;stroke-width:0"
     d="m 19.898582,23.294004 c -2.166837,0.0225 -4.419163,1.076676 -5.485824,3.026047 -0.706019,1.296363 -1.067323,2.785225 -1.005853,4.261175 -0.04579,1.291026 0.197779,2.587645 0.790169,3.741806 0.765791,1.605884 2.28823,2.791934 4.019567,3.182958 1.769645,0.449114 3.750109,0.196937 5.288824,-0.812521 0.8576,-0.643298 1.641843,-1.470544 2.010973,-2.493938 0.12906,-0.435016 0.127443,-0.993558 -0.273076,-1.285739 -0.480882,-0.403338 -1.117581,-0.608201 -1.730876,-0.670325 -0.237869,0.385627 -0.341915,0.860697 -0.596457,1.247652 -0.651731,1.190943 -1.94457,2.178894 -3.359997,2.0127 -1.485349,-0.169878 -2.662878,-1.365914 -3.238241,-2.685699 -0.813799,-2.003644 -0.555884,-4.532524 1.000718,-6.114442 0.943302,-1.007552 2.511972,-1.477923 3.803884,-0.892788 1.005146,0.443557 1.613412,1.432658 2.045552,2.392608 0.16248,0.09054 0.387501,-0.07899 0.5714,-0.07928 0.638317,-0.149225 1.308044,-0.271519 1.927777,-0.439728 -0.429891,-1.418316 -1.298182,-2.71978 -2.55411,-3.533181 -0.940799,-0.629614 -2.094151,-0.874177 -3.21443,-0.857302 z"
     id="path2"
     transform="scale(3.1249983)" />
  <path
     style="fill:#000000;stroke-width:0"
     d="m 34.327267,28.820486 c -0.670314,1.743107 -1.292798,3.512758 -2.020823,5.228885 -0.25659,-0.509691 -0.414015,-1.106211 -0.631867,-1.64757 -0.797068,-2.114237 -1.467145,-4.280344 -2.382248,-6.347324 -0.361767,-0.733941 -0.687269,-1.493016 -1.128126,-2.18299 -0.722354,-0.105376 -1.489059,-0.199675 -2.20221,-0.227179 1.458444,4.033071 3.046972,8.020821 4.51577,12.048587 0.282391,0.61614 0.519877,1.359562 1.142849,1.715014 0.600316,0.322599 1.417786,0.21099 1.845408,-0.344017 0.694695,-0.847395 0.986841,-1.938672 1.439788,-2.922119 1.182836,-2.933793 2.386103,-5.863291 3.40073,-8.860381 0.155497,-0.549134 0.380695,-1.098037 0.454803,-1.659404 -0.697552,-0.108153 -1.42823,-0.01994 -2.137765,-0.04946 -0.426631,-0.14799 -0.420824,0.328019 -0.554454,0.602824 -0.580618,1.548377 -1.161236,3.096755 -1.741855,4.645134 z"
     id="path3"
     transform="scale(3.1249983)" />
  <path
     style="fill:#e6e6e6;stroke-width:0"
     d="m 5.5994134,31.52012 c 0,8.85484 0,17.709681 0,26.564521 9.3823746,-0.009 18.7647486,-0.01802 28.1471226,-0.02704 0.01543,-2.408354 -0.08102,-4.820137 0.04522,-7.226276 0.125878,-1.171889 0.298516,-2.43925 1.063742,-3.385427 0.783122,-0.973209 1.972766,-1.583881 3.216865,-1.676117 2.920654,-0.327744 5.866928,-0.189696 8.798988,-0.169187 0,-13.548333 0,-27.096665 0,-40.6449977 -13.757313,0 -27.514626,0 -41.2719396,0 0,8.8548397 0,17.7096797 0,26.5645197 z M 19.933057,23.264664 c 1.318404,-0.0053 2.686875,0.333507 3.692075,1.226011 0.967024,0.825066 1.725148,1.933323 2.05645,3.164576 -0.05713,0.181521 -0.354391,0.110028 -0.49491,0.191027 -0.664822,0.133947 -1.33586,0.329343 -2.003428,0.400811 -0.413792,-0.667968 -0.738891,-1.422662 -1.359825,-1.933953 -1.123808,-1.018697 -2.950118,-0.869296 -4.070462,0.07607 -1.39514,1.09382 -1.983373,2.955012 -1.813134,4.676866 0.107086,1.266038 0.632125,2.518851 1.58627,3.379704 0.858291,0.879432 2.241928,1.319296 3.403177,0.811578 1.15843,-0.439109 1.888817,-1.533984 2.352422,-2.632953 0.05407,-0.231404 0.240847,-0.468529 0.504917,-0.376747 0.657456,0.138197 1.401728,0.389845 1.755501,1.004071 0.260433,0.825267 -0.272319,1.63632 -0.758135,2.262149 -0.671269,0.876723 -1.5967,1.548942 -2.65531,1.874225 -1.094466,0.398842 -2.291811,0.407391 -3.433991,0.259845 -1.965708,-0.324061 -3.766048,-1.61086 -4.596137,-3.438456 -0.841777,-1.821521 -0.921453,-3.932075 -0.500045,-5.873323 0.373055,-1.571649 1.215941,-3.100834 2.614385,-3.975988 1.097913,-0.710924 2.412781,-1.09465 3.72018,-1.095518 z m 17.016093,0.27318 c 0.605616,0.02137 1.235148,-0.02224 1.828014,0.06643 -0.06375,0.679329 -0.34243,1.329944 -0.538187,1.98268 -1.202748,3.392166 -2.534104,6.738793 -3.924494,10.058008 -0.338717,0.676399 -0.635748,1.50738 -1.369675,1.846352 -0.58775,0.251701 -1.315562,0.116002 -1.730562,-0.384988 -0.608422,-0.78362 -0.868562,-1.77021 -1.246914,-2.672883 -1.3165,-3.566781 -2.715195,-7.103578 -3.996013,-10.6832 -0.09885,-0.246446 0.271391,-0.117431 0.380233,-0.121211 0.611786,0.06979 1.231084,0.118184 1.838324,0.200535 1.212232,2.060072 1.992813,4.335602 2.804212,6.573666 0.433127,1.179816 0.825835,2.376198 1.311308,3.535792 1.396856,-3.417616 2.598871,-6.914374 3.969657,-10.341143 0.203844,-0.0915 0.455744,-0.04227 0.674097,-0.06004 z"
     id="path4"
     transform="scale(3.1249983)" />
</svg>
