<?xml version="1.0" encoding="UTF-8" standalone="no"?>
<!-- Uploaded to: SVG Repo, www.svgrepo.com, Generator: SVG Repo Mixer Tools -->

<svg
   fill="#000000"
   height="584.33624"
   width="835.73578"
   version="1.1"
   id="Capa_1"
   viewBox="0 0 78.657362 54.996266"
   xml:space="preserve"
   sodipodi:docname="email.svg"
   inkscape:version="1.3.2 (091e20ef0f, 2023-11-25)"
   xmlns:inkscape="http://www.inkscape.org/namespaces/inkscape"
   xmlns:sodipodi="http://sodipodi.sourceforge.net/DTD/sodipodi-0.dtd"
   xmlns="http://www.w3.org/2000/svg"
   xmlns:svg="http://www.w3.org/2000/svg"><defs
   id="defs1" /><sodipodi:namedview
   id="namedview1"
   pagecolor="#505050"
   bordercolor="#eeeeee"
   borderopacity="1"
   inkscape:showpageshadow="0"
   inkscape:pageopacity="0"
   inkscape:pagecheckerboard="0"
   inkscape:deskcolor="#505050"
   inkscape:zoom="1.49125"
   inkscape:cx="417.43504"
   inkscape:cy="292.03688"
   inkscape:window-width="3440"
   inkscape:window-height="1381"
   inkscape:window-x="1920"
   inkscape:window-y="316"
   inkscape:window-maximized="1"
   inkscape:current-layer="Capa_1" />
<g
   id="g1"
   style="display:none"
   transform="translate(1.6779974,-10.183795)">
	<path
   d="M 66.097,12.089 H 9.197 C 4.126,12.089 0,16.215 0,21.286 v 32.722 c 0,5.071 4.126,9.197 9.197,9.197 h 56.9 c 5.071,0 9.197,-4.126 9.197,-9.197 V 21.287 c 0.001,-5.072 -4.125,-9.198 -9.197,-9.198 z m -4.494,6 L 37.647,33.523 13.691,18.089 Z m 4.494,39.117 H 9.197 C 7.434,57.206 6,55.771 6,54.009 V 21.457 l 29.796,19.16 c 0.04,0.025 0.083,0.042 0.124,0.065 0.043,0.024 0.087,0.047 0.131,0.069 0.231,0.119 0.469,0.215 0.712,0.278 0.025,0.007 0.05,0.01 0.075,0.016 0.267,0.063 0.537,0.102 0.807,0.102 10e-4,0 0.002,0 0.002,0 0.002,0 0.003,0 0.004,0 0.27,0 0.54,-0.038 0.807,-0.102 0.025,-0.006 0.05,-0.009 0.075,-0.016 0.243,-0.063 0.48,-0.159 0.712,-0.278 0.044,-0.022 0.088,-0.045 0.131,-0.069 0.041,-0.023 0.084,-0.04 0.124,-0.065 l 29.796,-19.16 v 32.551 c -0.001,1.763 -1.436,3.198 -3.199,3.198 z"
   id="path1" />
</g>
<path
   style="fill:#e6e6e6;stroke-width:0"
   d="M 9.1190636,2.2788342 C 6.1807835,2.8745801 3.5801467,4.9895481 2.5160964,7.8084435 1.9886521,9.0983963 1.8485343,10.501784 1.8937591,11.884221 c -0.043751,10.701628 -0.053768,21.403684 0.00946,32.105233 0.00926,3.433769 2.2125963,6.738147 5.3784511,8.069933 1.1614398,0.493424 2.4214322,0.800291 3.6896173,0.717281 19.353171,0.02467 38.706367,0.0022 58.059548,9.51e-4 2.216263,-0.424328 4.321749,-1.517152 5.73775,-3.308864 1.336774,-1.651576 2.062696,-3.797051 1.982196,-5.921272 0.06347,-10.542465 0.05837,-21.085474 0.0054,-31.627984 C 76.801617,10.406613 76.633092,8.8468692 75.997448,7.4711847 75.01927,5.2458884 73.118232,3.4501952 70.813762,2.6518266 69.970823,2.3348793 69.108994,2.1461671 68.206425,2.1870075 58.862751,2.1130839 49.51848,2.1572975 40.17456,2.1433935 30.03101,2.1433163 19.887459,2.1433822 9.7439085,2.1433605 9.5356269,2.1885172 9.3273453,2.2336747 9.1190636,2.2788314 Z M 51.735855,7.6934997 c 3.804839,0.02026 7.611454,-0.031007 11.4151,0.065086 0.28495,-0.019192 0.292495,0.3679382 0.03446,0.4280868 C 55.294004,13.300767 47.394454,18.40304 39.462072,23.453424 39.097253,23.522696 38.826876,23.120677 38.505724,22.99311 30.830016,18.1084 23.166628,13.203704 15.541069,8.2410527 15.265321,8.1778497 15.229205,7.76034 15.548869,7.7670911 c 2.937919,-0.1062304 5.880634,-0.046013 8.820434,-0.069624 9.122191,-0.00594 18.244389,-0.00676 27.366582,-0.00396 z M 7.8725787,11.173105 c 9.9959693,6.390656 19.9499783,12.851058 29.9632193,19.212165 1.124719,0.591416 2.556625,0.421464 3.549803,-0.356902 9.834434,-6.267581 19.623922,-12.605459 29.445069,-18.893845 0.453973,-0.0073 0.225869,0.523798 0.286502,0.797275 0.05123,10.160625 0.04858,20.321623 0.01567,30.482304 -0.04381,0.799353 0.057,1.621753 -0.119246,2.406824 -0.398566,1.262318 -1.583313,2.284421 -2.908873,2.38533 -17.760637,-0.0032 -35.52132,0.03495 -53.281924,0.0011 -1.640916,-0.03583 -3.291089,0.03661 -4.9252993,-0.133757 C 8.8711078,46.770315 8.0252526,45.918703 7.6566134,44.922252 7.4541907,43.571419 7.5466857,42.193856 7.5059906,40.831981 c -0.01537,-9.855748 -0.022336,-19.711786 0.015398,-29.56741 0.094785,-0.09673 0.2211909,-0.214212 0.3511901,-0.09147 z"
   id="path2" /></svg>
