<?xml version="1.0" encoding="UTF-8" standalone="no"?>
<svg
   width="45.4661mm"
   height="45.4661mm"
   viewBox="0 0 537 537"
   version="1.1"
   id="svg1"
   sodipodi:docname="linkedin.svg"
   inkscape:version="1.3.2 (091e20ef0f, 2023-11-25)"
   xmlns:inkscape="http://www.inkscape.org/namespaces/inkscape"
   xmlns:sodipodi="http://sodipodi.sourceforge.net/DTD/sodipodi-0.dtd"
   xmlns="http://www.w3.org/2000/svg"
   xmlns:svg="http://www.w3.org/2000/svg">
  <defs
     id="defs1" />
  <sodipodi:namedview
     id="namedview1"
     pagecolor="#505050"
     bordercolor="#eeeeee"
     borderopacity="1"
     inkscape:showpageshadow="0"
     inkscape:pageopacity="0"
     inkscape:pagecheckerboard="0"
     inkscape:deskcolor="#505050"
     inkscape:document-units="mm"
     showgrid="false"
     inkscape:zoom="9.6700264"
     inkscape:cx="4.4984365"
     inkscape:cy="118.97589"
     inkscape:window-width="3440"
     inkscape:window-height="1381"
     inkscape:window-x="1920"
     inkscape:window-y="316"
     inkscape:window-maximized="1"
     inkscape:current-layer="svg1" />
  <path
     id="Selection"
     fill="none"
     stroke="#000000"
     stroke-width="1"
     d="M 29,0.75 C 29,0.75 71,0 71,0 c 0,0 84,0 84,0 0,0 269,0 269,0 0,0 76,0 76,0 15.95,0.03 32.03,13.74 36.37,29 0.73,2.6 0.63,5.33 0.63,8 0,0 0,385 0,385 0,0 0,77 0,77 0,2.67 0.1,5.4 -0.63,8 -3.7,13.02 -17.41,25.57 -30.37,29.07 -3.67,1 -6.28,0.92 -10,0.93 0,0 -382,0 -382,0 0,0 -73,0 -73,0 C 18.36,536.96 0.04,518.66 0,496 0,496 0,124 0,124 0,124 0,64 0,64 0,42.36 -3.59,22.65 16,7.53 19.88,4.53 24.44,2.49 29,0.75 Z M 113,75.3 C 97.33,78.26 84.76,87 78.46,102 c -11.7,27.87 6.8,62.62 38.54,63 9.07,0.1 14.56,-0.37 23,-4.32 C 166.88,148.09 173.29,111.89 153.82,90 142.81,77.64 129.04,73.7 113,75.3 Z M 287,232 c -2.93,-7.81 -1.89,-11.93 -2,-20 -0.04,-2.94 0.02,-6.17 -2.43,-8.26 -2.41,-2.05 -6.58,-1.74 -9.57,-1.74 0,0 -53,0 -53,0 -9.69,0.14 -9.99,3.36 -10,12 0,0 0,186 0,186 0,0 0,39 0,39 0,3.78 -0.69,11.71 1.74,14.57 2.41,2.84 6.89,2.42 10.26,2.43 0,0 56,0 56,0 9.69,-0.14 9.99,-3.36 10,-12 0,0 0,-118 0,-118 0.18,-15.19 3.26,-36.11 13.33,-47.99 16.19,-19.09 53.26,-19.54 67.57,1.99 5.98,9 8.97,25.24 9.1,36 0,0 0,93 0,93 0,0 0,35 0,35 0,2.99 -0.31,7.16 1.74,9.57 2.41,2.84 6.89,2.42 10.26,2.43 0,0 56,0 56,0 9.69,-0.14 9.99,-3.36 10,-12 0,0 0,-72 0,-72 0,0 1,-15 1,-15 0,0 0,-35 0,-35 0,0 -0.96,-12 -0.96,-12 0,0 0,-15 0,-15 -0.13,-7.02 -2.03,-20.94 -3.44,-28 -5.16,-25.81 -13.86,-46.11 -37.6,-59.99 -5.47,-3.2 -11.9,-5.85 -18,-7.58 -11.99,-3.4 -26.56,-4.49 -39,-4.43 -19.78,0.09 -38.9,8.17 -54,20.61 z M 86.04,202.14 c -4.99,2.49 -4.97,4.75 -5.04,9.86 0,0 0,46 0,46 0,0 0,152 0,152 0,0 0,34 0,34 0,2.99 -0.31,7.16 1.74,9.57 2.41,2.84 6.89,2.42 10.26,2.43 0,0 56,0 56,0 9.69,-0.14 9.99,-3.36 10,-12 0,0 0,-186 0,-186 0,0 0,-39 0,-39 0,-3.78 0.69,-11.71 -1.74,-14.57 -2.41,-2.84 -6.89,-2.42 -10.26,-2.29 0,0 -39,0 -39,0 z"
     style="display:none" />
  <path
     style="display:none;fill:#000000;stroke-width:0"
     d="M 51.838894,0.75380111 C 37.66743,0.81171554 23.49351,0.66785695 9.3241112,0.95974677 6.8839858,1.979934 4.5049286,3.386848 2.979214,5.6316568 0.84997461,8.5324439 0.61469391,12.27304 0.72715507,15.741264 c -0.0832646,48.352643 0.0356153,96.705366 0.0652073,145.058026 0.89593673,3.95077 3.48094853,7.61941 7.27436633,9.23642 1.7391066,0.77579 3.6389503,1.14212 5.5411083,0.99676 49.205269,0.0662 98.410613,0.0142 147.615903,0.0155 3.68253,-1.0524 6.8458,-3.63025 8.81339,-6.88933 0.71717,-1.16727 1.07196,-2.50784 0.96517,-3.87983 0.17666,-20.10956 0.0647,-40.22072 0.0891,-60.330936 C 171.0783,69.832868 171.0624,39.717861 171.048,9.6028547 169.84446,5.9222387 166.98119,2.8730483 163.44173,1.4241556 162.28282,0.88152226 161.0501,0.66989742 159.76583,0.79127907 123.7902,0.77716755 87.814546,0.73634219 51.838894,0.75380111 Z M 38.1705,23.34984 c 3.674515,-0.206906 7.367553,1.102216 10.094646,3.57288 2.686467,2.222087 4.461589,5.480317 5.037933,8.902684 0.778102,4.650079 -0.577824,9.662119 -3.888607,13.070588 -2.746249,2.864491 -6.659401,4.681964 -10.662504,4.560048 -2.86724,0.18906 -5.809191,-0.369472 -8.259157,-1.917067 C 24.043757,47.61512 21.410876,38.60943 24.714672,31.82014 c 1.764559,-3.981897 5.471358,-6.848491 9.613515,-8.024 1.233957,-0.447127 2.547491,-0.449358 3.842313,-0.4463 z m 77.51269,38.460993 c 5.51277,-0.122998 11.16963,0.657804 16.15202,3.126604 3.66632,1.81098 6.79949,4.64878 9.12602,7.995104 3.45341,5.534426 4.7773,12.093024 5.44789,18.497816 0.6379,8.644763 0.38734,17.323753 0.40267,25.984363 -0.0958,8.76888 -0.0457,17.54172 -0.29273,26.30764 0.0825,1.4484 -1.10452,2.73716 -2.55045,2.79898 -5.76772,0.25719 -11.55088,0.0782 -17.32429,0.0877 -1.57242,-0.122 -3.24974,0.19616 -4.75448,-0.35994 -1.3404,-0.57966 -1.70544,-2.13789 -1.56841,-3.46277 -0.19529,-14.11754 0.0287,-28.25576 -0.20107,-42.36191 -0.0527,-3.469842 -0.80427,-7.050028 -2.47312,-10.072249 -2.19734,-3.61337 -6.62049,-5.410273 -10.74316,-5.14568 -2.89503,-0.139018 -5.8449,0.964447 -8.232972,2.636015 -3.31207,2.514664 -4.548638,6.687163 -5.272197,10.586004 -0.637967,3.36384 -0.34212,6.8643 -0.465471,10.30017 -0.110547,11.65065 -0.01424,23.30402 -0.232757,34.95309 0.07519,0.9605 -0.286997,1.94923 -1.186829,2.4008 -1.315211,0.93099 -2.998979,0.36828 -4.495661,0.52605 -6.079355,-0.032 -12.168651,0.13769 -18.242054,-0.11015 -1.379733,-0.23708 -2.275163,-1.60264 -2.121733,-2.96082 -0.199327,-12.6964 -0.06922,-25.39629 -0.104862,-38.09407 0.03626,-13.14365 -0.04166,-26.289488 0.149428,-39.431599 0.269064,-1.494971 1.955767,-2.093537 3.31129,-1.980347 6.477416,-0.16099 12.966024,-0.219968 19.440708,0.05057 1.333705,0.05384 2.342896,1.241461 2.341668,2.549042 0.214954,2.073518 2.88e-4,4.177925 0.35162,6.239783 3.039521,-2.727363 5.828989,-5.84484 9.538112,-7.696789 3.24942,-1.700587 6.78862,-3.067013 10.47404,-3.329159 1.17498,-0.04349 2.35125,-0.03102 3.52678,-0.03428 z m -77.600381,2.112015 c 3.776735,0.05535 7.570203,-0.09991 11.336438,0.18138 1.503404,0.382707 2.270973,2.03459 2.065875,3.491064 0.179343,23.50161 0.14565,47.004738 0.07213,70.506818 -0.08455,2.13643 0.112879,4.30582 -0.166238,6.42404 -0.339679,1.43669 -1.872626,2.15295 -3.249621,2.02669 -6.4525,0.0814 -12.909642,0.15358 -19.361556,0.017 -1.226136,0.0196 -2.70601,-0.27107 -3.182875,-1.56644 -0.611528,-1.52735 -0.214062,-3.24128 -0.359548,-4.84329 -0.08604,-22.92061 -0.04242,-45.841827 0.0367,-68.762414 0.09299,-1.924713 -0.115293,-3.896196 0.252011,-5.792199 0.622138,-0.99816 1.699618,-1.952791 2.962931,-1.683473 3.197919,2.58e-4 6.395836,5.16e-4 9.593755,7.74e-4 z"
     id="path1"
     transform="scale(3.1249931)" />
  <path
     style="fill:#ececec;stroke-width:0"
     d="m 26.66382,65.178855 c -1.337535,0.851236 -0.488854,2.655269 -0.72938,3.984603 0.01627,24.815138 -0.195413,49.652112 0.05356,74.454052 -0.196692,1.3116 0.91098,2.41147 2.22196,2.27139 6.742931,0.20069 13.53853,0.19023 20.27507,0.0328 1.184133,0.0424 2.553129,-0.8023 2.349803,-2.13894 0.29825,-13.81658 0.102033,-27.67501 0.162904,-41.50793 -0.0627,-11.795103 0.132934,-23.609743 -0.168775,-35.391998 0.07609,-1.429111 -1.376048,-2.485151 -2.737788,-2.218989 -6.879754,-0.152914 -13.79544,-0.107673 -20.689737,-0.173296 -0.245874,0.229446 -0.491747,0.458892 -0.737621,0.688338 z"
     id="path6"
     transform="scale(3.1249931)" />
  <path
     style="fill:#ececec;stroke-width:0"
     d="m 37.431225,23.978331 c -3.59757,0.03356 -7.142463,1.839802 -9.675849,4.398689 -4.647674,4.784094 -5.030267,12.709588 -1.413104,18.152067 2.155607,3.492206 5.952544,5.97005 10.015647,6.334409 4.217443,0.386673 8.830822,-0.630503 11.89047,-3.794184 2.451648,-2.083901 4.046335,-5.164153 4.478571,-8.306674 0.415044,-3.461622 -0.04999,-7.108414 -2.013309,-10.062505 -2.470672,-4.009376 -6.97726,-6.830317 -11.761133,-6.715339 -0.50699,-0.01508 -1.014186,-0.0088 -1.521293,-0.0065 z"
     id="path7"
     transform="scale(3.1249931)" />
  <path
     style="display:inline;fill:#ececec;stroke-width:0"
     d="m 115.03006,62.446911 c -3.89758,-0.109288 -7.85926,0.591284 -11.34785,2.417926 -4.348922,1.784161 -7.590623,5.29889 -11.140694,8.258994 -0.98305,0.607741 -1.106607,-0.884272 -1.077648,-1.51986 -0.30173,-2.099504 0.122662,-4.36484 -0.787005,-6.308777 -1.193628,-1.05101 -2.950894,-0.455559 -4.398217,-0.659719 -5.881984,0.04536 -11.795576,-0.192134 -17.652444,0.1572 -0.614972,0.10792 -1.20582,0.429371 -1.108855,1.16864 -0.504658,7.374205 -0.226545,14.785044 -0.317281,22.179522 0.05865,17.952973 -0.129517,35.924083 0.137074,53.865883 0.132772,1.10295 -0.09891,2.36676 0.423388,3.37082 1.405498,0.96888 3.259059,0.35601 4.850243,0.58043 5.870074,-0.004 11.763831,0.24094 17.611642,-0.10457 1.269228,0.0552 1.980225,-1.18437 1.823855,-2.31991 0.387498,-14.19815 0.0761,-28.43269 0.560689,-42.63779 0.254256,-4.253443 1.374865,-8.708394 4.193451,-12.011184 4.103532,-4.411557 11.148652,-5.418475 16.558092,-3.013096 4.40325,1.984597 6.63534,6.902205 7.04739,11.489677 0.45653,10.211273 0.24276,20.441423 0.38251,30.660433 0.12936,5.55049 -0.15203,11.12158 0.40601,16.64667 0.17068,1.3173 1.91422,1.13342 2.87454,1.20742 6.74689,0.0401 13.5565,0.18393 20.2975,-0.0881 1.57701,-0.16241 1.5167,-2.08533 1.56572,-3.28052 0.3516,-15.56572 0.38038,-31.17011 0.12781,-46.736189 -0.39021,-7.844969 -1.45611,-16.17383 -5.92657,-22.880506 -4.43726,-6.554305 -12.33177,-10.015113 -20.08263,-10.329007 -1.66406,-0.09992 -3.33857,-0.118336 -5.02072,-0.114427 z"
     id="path8"
     transform="scale(3.1249931)" />
</svg>
