<?xml version="1.0" encoding="UTF-8" standalone="no"?>
<!-- Created with Inkscape (http://www.inkscape.org/) -->

<svg
   width="210mm"
   height="297mm"
   viewBox="0 0 210 297"
   version="1.1"
   id="svg1"
   xml:space="preserve"
   sodipodi:docname="drawing2.svg"
   inkscape:version="1.3.2 (091e20ef0f, 2023-11-25)"
   xmlns:inkscape="http://www.inkscape.org/namespaces/inkscape"
   xmlns:sodipodi="http://sodipodi.sourceforge.net/DTD/sodipodi-0.dtd"
   xmlns="http://www.w3.org/2000/svg"
   xmlns:svg="http://www.w3.org/2000/svg"><sodipodi:namedview
     id="namedview1"
     pagecolor="#505050"
     bordercolor="#eeeeee"
     borderopacity="1"
     inkscape:showpageshadow="0"
     inkscape:pageopacity="0"
     inkscape:pagecheckerboard="0"
     inkscape:deskcolor="#505050"
     inkscape:document-units="mm"
     inkscape:zoom="1.0467523"
     inkscape:cx="558.39383"
     inkscape:cy="478.14562"
     inkscape:window-width="3440"
     inkscape:window-height="1381"
     inkscape:window-x="1920"
     inkscape:window-y="316"
     inkscape:window-maximized="1"
     inkscape:current-layer="layer1" /><defs
     id="defs1" /><g
     inkscape:label="Layer 1"
     inkscape:groupmode="layer"
     id="layer1"
     style="display:inline"><path
       id="Selection"
       fill="none"
       stroke="#000000"
       stroke-width="1"
       d="m 99.780813,60.50698 c 6.761917,-0.821871 18.324547,0.57143 25.044137,2.091715 33.01947,7.474441 58.6809,33.188778 66.19061,66.190605 1.02293,4.49031 1.60494,8.82189 1.91888,13.40391 0,0 0.32098,3.52734 0.32098,3.52734 0.11288,9.90126 -0.93827,19.42862 -3.88713,28.92423 -8.35275,26.86778 -28.50446,47.81667 -55.01951,57.25232 -11.56616,4.11641 -21.73196,4.97002 -33.8625,4.82893 -6.253979,-0.0741 -13.365104,-1.62258 -19.40039,-3.21694 C 73.777234,231.57963 67.166991,228.6343 60.627296,224.88121 21.784185,202.59898 6.2356534,153.66413 24.246271,112.91626 33.978213,90.905629 52.394475,73.625171 75.089406,65.5405 80.916578,63.466421 86.944809,61.970828 93.07886,61.163066 Z m 56.437497,151.88038 c 2.22223,-0.75486 4.00001,-2.61024 5.64375,-4.23282 3.15698,-3.1217 5.83776,-5.96121 8.51149,-9.52382 8.95239,-11.93654 14.4621,-25.02298 16.23283,-39.85899 0,0 0.65256,-7.40743 0.65256,-7.40743 0,0 0,-5.29101 0,-5.29101 -0.0106,-7.31571 -1.91887,-16.68787 -4.23281,-23.63321 C 178.81801,109.81572 171.26596,97.695766 161.50933,88.609328 135.06836,63.974359 94.616781,58.944367 63.449171,77.642816 c 0.761906,2.391539 5.36509,8.504426 7.047633,10.934766 0,0 9.058219,13.051178 9.058219,13.051178 1.30159,1.91534 4.70195,7.09348 6.201071,8.46562 -0.06702,-0.50794 -0.112875,-0.903 0,-1.40388 1.700179,-4.12347 6.074086,1.53792 2.024695,2.1799 -0.536156,0.16225 -1.220461,0.0106 -1.756617,0 0,0 6.229289,9.10054 6.229289,9.10054 0,0 14.927719,21.5168 14.927719,21.5168 0,0 33.17114,47.97188 33.17114,47.97188 z M 55.689014,83.286566 c -1.932984,0.560848 -3.086425,1.837746 -4.585547,3.128754 -3.174609,2.733692 -6.123469,5.686079 -8.821887,8.895962 -9.802488,11.654348 -15.897739,24.814868 -18.366879,39.827238 0,0 -1.029985,9.1711 -1.029985,9.1711 0,0 0,8.11289 0,8.11289 0.007,3.50618 0.63845,7.47444 1.26279,10.93477 2.116406,11.739 6.589078,22.67024 13.453289,32.45156 7.008832,9.98238 16.589098,18.72667 27.259314,24.65966 25.897758,14.39509 59.354611,13.85894 84.303521,-2.43739 0,0 -6.90654,-10.2293 -6.90654,-10.2293 0,0 -9.87657,-14.10938 -9.87657,-14.10938 0,0 -29.17113,-41.97539 -29.17113,-41.97539 0,0 -16.472695,-23.63321 -16.472695,-23.63321 0,0 -9.178149,-12.69843 -9.178149,-12.69843 -0.162257,0.54673 -0.183421,0.86772 -0.560847,1.35802 -2.190481,2.83952 -5.185196,-1.8448 -1.894184,-2.78307 0.546738,-0.17284 0.878309,-0.0529 1.396828,0 0,0 -5.98943,-9.15699 -5.98943,-9.15699 z m 40.211721,21.516794 c 2.179898,-0.91005 5.686075,-1.27337 8.112895,-1.67548 0.86772,-0.14462 2.76191,-0.37037 3.45327,-0.79718 0.82892,-0.51147 1.35802,-1.66138 1.91534,-2.465617 0.88184,-1.269844 2.23634,-2.790129 3.44975,-3.742512 4.99119,-3.918879 14.50443,-4.320997 20.45859,-2.790129 2.68431,0.687832 6.127,2.402121 8.00707,4.44798 1.28043,1.389774 2.35627,3.784838 3.66491,4.560858 0,0 11.25575,2.46208 11.25575,2.46208 -1.63668,2.91006 -7.15345,1.44269 -9.37215,3.14992 -0.76543,0.58907 -0.92769,1.63316 -1.24162,2.49383 -0.43034,1.18166 -1.42858,3.19225 -2.11994,4.23282 -2.38801,3.58378 -6.01412,5.40742 -9.84129,7.05469 0,0 8.11289,3.47443 8.11289,3.47443 0,0 7.05469,2.74075 7.05469,2.74075 0,0 11.64024,0.48677 11.64024,0.48677 0,0 4.23281,0.34921 4.23281,0.34921 0,0 2.61729,0.36331 2.61729,0.36331 0,0 0.91005,2.46209 0.91005,2.46209 1.73193,-0.9806 2.89948,-1.6508 4.93828,-1.74956 2.64199,-0.12699 5.06174,0.06 6.97709,2.13757 0.86067,0.93827 1.23104,1.92593 1.52381,3.13933 1.14639,4.78308 -2.33863,8.61378 -7.08996,8.80425 -2.9418,0.11993 -4.41623,-0.70547 -6.70195,-2.45503 -0.33157,3.88713 -1.62963,3.17108 -4.93828,3.17461 0,0 -5.29102,0.35273 -5.29102,0.35273 0,0 -7.76015,0.29983 -7.76015,0.29983 -1.97179,0.23633 -3.97532,0.47619 -5.47444,1.95415 -2.29278,2.25397 -2.67373,7.34745 -3.0441,10.44447 0,0 -3.1217,25.39687 -3.1217,25.39687 -1.61905,-0.93122 -2.515,-2.74074 -3.57673,-4.23281 0,0 -7.05468,-10.2293 -7.05468,-10.2293 0,0 -17.84131,-25.74961 -17.84131,-25.74961 0,0 -9.975327,-14.81485 -9.975327,-14.81485 5.583787,0 3.738987,-0.4903 8.465627,-1.76367 -0.43386,-0.67019 -0.91711,-1.24515 -0.82893,-2.10935 0.12346,-1.21693 1.40389,-2.05644 2.57144,-1.74251 1.26631,0.33863 1.34391,1.35098 1.4321,2.44092 0,0 7.05468,-3.1746 7.05468,-3.1746 -5.23457,-2.25398 -9.00178,-4.40918 -11.38626,-9.87657 -0.72311,-1.65785 -1.1217,-2.40212 -1.31217,-4.23281 -2.22928,-0.18342 -7.880089,-1.28043 -9.876565,-2.11641 z m -3.474434,2.83246 c 3.188719,-1.0194 3.770731,2.37038 1.943566,3.44974 -1.753089,1.03704 -4.359797,-1.30864 -1.943566,-3.44974 z m 5.291016,2.11994 c 3.121703,-0.93122 3.686073,2.40212 1.96473,3.44974 -1.855383,1.12875 -4.419762,-1.29454 -1.96473,-3.44974 z m -58.959553,52.19058 c 0,0 7.407422,0 7.407422,0 1.731926,-0.004 4.698422,-0.23986 2.670199,-2.78308 -1.403883,-1.75662 -4.257504,-1.83775 -6.197543,-2.73722 -2.631398,-1.21693 -3.756621,-4.0635 -3.760149,-6.82541 -0.0071,-3.94357 1.597887,-7.62259 2.818348,-11.2875 0,0 6.028231,-18.34219 6.028231,-18.34219 0,0 2.419758,-7.03352 2.419758,-7.03352 0.493828,-0.83951 1.315699,-1.48501 2.2575,-0.80071 0.987656,0.71958 0.627867,1.92946 0.342152,2.89595 0,0 -2.109351,6.70196 -2.109351,6.70196 0,0 -5.643751,16.93125 -5.643751,16.93125 -1.252207,3.75309 -2.69489,6.9277 -2.705472,10.93476 0.962965,-0.73369 1.654324,-1.2769 2.821875,-1.67549 2.056441,-0.70547 8.095254,-0.44091 10.582031,-0.49735 0,0 6.345692,0 6.345692,0 1.590832,-0.43739 2.148152,-1.91888 3.855387,-1.54145 1.104059,0.24691 1.506176,1.16049 2.853621,1.54498 0,0 9.520301,0 9.520301,0 3.167555,0.0917 7.530879,1.7425 6.920649,5.69666 -0.458555,2.9806 -3.029988,3.46385 -4.804242,4.75839 -2.148153,1.57319 -3.813059,4.06702 -4.776024,6.52911 -1.788363,4.57144 -1.446211,11.47445 -0.440918,16.22578 0,0 1.689598,7.40742 1.689598,7.40742 0,0 -26.455079,0 -26.455079,0 0,0 -2.726637,-0.55379 -2.726637,-0.55379 0,0 0,-3.67902 0,-3.67902 0,0 0.962965,-8.81836 0.962965,-8.81836 0,0 -9.876563,0 -9.876563,0 z m 63.918996,-49.10769 c 3.18519,-0.47266 3.34392,3.01588 1.3157,3.73899 -2.04586,0.73369 -3.93299,-2.01411 -1.3157,-3.73899 z m 3.49913,4.67373 c 3.2381,-1.02998 3.70371,2.49384 1.67901,3.49207 -1.56614,0.77602 -4.31394,-1.25926 -1.67901,-3.49207 z m -34.927762,0.71958 c 3.097008,-0.74779 3.372141,2.82541 1.643743,3.59437 -1.911821,0.85009 -4.402126,-1.418 -1.643743,-3.59437 z m -3.10759,5.27691 c 3.530872,-1.2381 3.682547,2.9418 1.619051,3.5732 -1.601414,0.4903 -3.608473,-1.55203 -1.619051,-3.5732 z m -0.811289,4.88184 c 3.026461,0.40917 2.292774,3.73899 0.338625,3.96121 -2.388012,0.27513 -3.73193,-3.22752 -0.338625,-3.96121 z m 17.63672,0.39859 c 0,0 0.705468,0 0.705468,0 0,0 10.934766,16.22578 10.934766,16.22578 0,0 -8.11289,-0.35273 -8.11289,-0.35273 0,0 -3.34745,-0.35979 -3.34745,-0.35979 0,0 -0.885363,-2.46208 -0.885363,-2.46208 -3.62611,2.00353 -7.544989,3.4321 -11.273391,0.50793 -4.229286,-3.31217 -3.509707,-12.31043 4.571437,-12.49738 3.266321,-0.0741 3.848333,0.43387 6.701954,1.76015 z m -20.05295,5.65434 c 3.195773,-1.02293 3.78484,2.41623 1.982367,3.44974 -1.813055,1.04409 -4.391543,-1.31217 -1.982367,-3.44974 z m -0.01764,5.55556 c 3.104063,-0.4515 3.294539,2.99472 1.336863,3.74251 -2.229281,0.85009 -4.04939,-2.07407 -1.336863,-3.74251 z m -18.370404,10.70549 c -1.548504,0.62081 -2.853621,1.86597 -1.012348,3.18166 0.878309,0.62434 2.088188,0.63845 3.1217,0.65256 0,0 28.571485,0 28.571485,0 1.223988,-0.003 5.460328,-0.15873 4.525582,-2.42681 -0.634922,-1.5485 -3.164027,-1.44974 -4.525582,-1.40741 0,0 -19.753126,0 -19.753126,0 z m 28.917165,7.00884 c 0,0 -22.927735,0 -22.927735,0 0,0 0.222223,3.52734 0.222223,3.52734 -0.137567,1.06173 -0.751325,2.59965 -1.707235,3.16755 -0.67725,0.39859 -1.63316,0.35274 -2.395066,0.35979 0,0 -6.701954,0 -6.701954,0 0,0 0,7.05469 0,7.05469 0,0 10.229298,0 10.229298,0 0,0 -1.029985,9.1711 -1.029985,9.1711 0,0 0,3.88007 0,3.88007 0,0 21.488579,0 21.488579,0 -0.201059,-4.33863 -1.425047,-5.26632 -1.410938,-13.4039 0.01058,-6.28573 1.686071,-8.46563 4.232813,-13.75664 z m 36.68438,10.22929 c 0,0 0.70547,0 0.70547,0 0,0 16.34218,23.63321 16.34218,23.63321 1.70723,2.55379 5.77073,7.66844 6.58555,10.22929 0,0 -8.81836,1.02293 -8.81836,1.02293 0,0 -3.17461,-0.28571 -3.17461,-0.28571 -4.709,-0.32804 -9.06175,-0.83598 -13.4039,-2.85362 0,0 4.87126,-3.99295 4.87126,-3.99295 0,0 -0.62082,-7.29455 -0.62082,-7.29455 z" /><path
       style="fill:#000000;stroke-width:0.337762"
       d="m 195.0069,423.79597 c -3.06988,0.28029 -4.53051,3.39719 -5.29762,6.00131 -10.34855,29.06298 -19.6179,58.49851 -29.41141,87.74816 -3.77454,12.19663 -8.72752,24.08036 -11.24509,36.63325 -1.44434,9.09745 -1.8312,19.17052 3.02596,27.37607 2.67588,4.69343 7.12349,8.21389 12.30683,9.73409 7.07053,2.59679 15.29139,3.57647 20.69363,9.34083 1.8031,2.35789 4.34334,5.9412 2.23899,8.84316 -3.27744,3.79076 -8.82646,3.21375 -13.34669,3.60142 -8.58038,0.32677 -17.27873,-0.0602 -25.83658,0.27665 -1.46453,1.2374 -0.33128,3.82696 -0.68851,5.59841 0,13.51049 0,27.02098 0,40.53147 0.8436,1.95825 3.6945,0.59454 5.39101,1.00009 10.66739,0.0895 21.46088,-0.19113 32.04453,0.18471 -1.15531,12.99663 -3.29211,25.9901 -3.65535,39.07422 0.16581,2.6471 -0.37392,5.43916 0.29356,7.98688 3.34048,0.89983 6.84509,1.82562 10.32814,1.99658 32.03551,0.024 64.07103,0.0476 96.10655,0.0709 1.98735,-0.71856 0.21455,-3.14775 0.17504,-4.63331 -3.23742,-14.87412 -7.41091,-29.72574 -7.95514,-44.994 -0.48703,-13.26574 -0.0868,-26.96077 4.87085,-39.53892 4.61735,-11.39951 12.39604,-22.23864 23.53719,-27.9618 5.07261,-2.80237 10.77284,-6.50321 12.0499,-12.58191 0.38229,-3.99381 0.74862,-8.47398 -1.89728,-11.83553 -4.19374,-5.78649 -11.40804,-8.50589 -18.23784,-9.57675 -13.94968,-0.66927 -27.92973,-0.41891 -41.89175,-0.67354 -3.94739,-1.476 -6.75323,-5.52997 -11.16595,-5.71294 -3.99302,-0.29229 -6.74082,3.22297 -10.08998,4.76166 -2.67071,1.68119 -6.03528,0.74024 -8.99688,1.0753 -17.0103,0.24928 -34.05434,-0.37291 -51.03904,0.77514 -6.78332,0.21619 -12.69735,3.97665 -17.85054,8.05886 -0.94629,0.40713 -0.28972,-2.49263 -0.50011,-3.52282 0.0859,-12.85138 5.35665,-24.97237 9.20917,-37.04849 9.95668,-29.84412 20.18756,-59.60631 29.42297,-89.68423 0.72026,-3.35721 2.54107,-6.96466 1.35904,-10.40403 -0.76004,-1.37264 -2.41416,-2.34476 -3.9476,-2.50089 z m 42.40962,144.81952 c 20.61768,0.11705 41.27753,-0.26254 61.86663,0.35178 4.29989,-0.14064 9.0594,1.84473 10.72256,6.05119 0.6108,2.47482 0.11933,5.49364 -2.35576,6.73875 -4.39053,2.62797 -9.80136,3.57076 -14.9242,3.23736 -37.88763,-0.0208 -75.9185,0.23629 -113.71902,-0.12823 -4.53813,-0.23263 -9.70417,-2.59003 -11.16726,-7.2078 -0.78712,-4.21886 3.38553,-7.0914 6.71899,-8.59151 2.46217,-1.03147 5.36854,-0.17966 8.00863,-0.4568 18.28314,0.002 36.56628,0.004 54.84943,0.005 z m 4.92789,26.33952 c 14.79096,0.0112 29.58217,-0.005 44.37286,0.0943 -5.1683,11.22935 -11.69564,22.02173 -14.66297,34.12388 -2.77024,13.67852 -2.1645,27.8102 -0.69156,41.60963 1.09876,9.71807 3.88756,19.16212 4.13713,28.90484 -27.71916,0 -55.43831,0 -83.15746,0 -0.11193,-9.34355 -0.048,-18.5877 1.26226,-27.84454 0.68011,-6.82315 1.70559,-13.62577 2.11536,-20.46866 -0.8436,-1.95825 -3.6945,-0.59454 -5.391,-1.00009 -10.92538,0 -21.85076,0 -32.77614,0 0,-9.57872 0,-19.15745 0,-28.73618 10.90885,-0.15075 21.85006,0.33767 32.73919,-0.38196 4.42314,-1.17392 6.51014,-5.97755 7.57788,-10.01478 0.68768,-5.41023 -0.44046,-10.88903 -0.44331,-16.28647 14.97259,0 29.94517,0 44.91776,0 z"
       id="path3"
       transform="scale(0.26458333)" /><path
       style="fill:#000000;stroke-width:0.337762"
       d="m 175.97413,570.66911 c -2.58573,1.20307 -6.29665,3.07248 -6.20836,6.43463 1.14786,3.36686 4.97713,5.04993 8.257,5.61503 7.2917,0.53152 14.64541,0.11932 21.96019,0.26872 32.09298,-0.0591 64.18954,0.15888 96.2801,-0.25637 3.87252,-0.0649 8.13913,-0.69134 11.15468,-3.30196 2.25716,-2.63603 -0.34703,-6.51129 -3.15596,-7.47563 -4.32292,-1.81538 -9.15353,-0.82221 -13.70504,-1.1664 -38.19354,-0.21852 -76.38862,-0.0821 -114.58261,-0.11802 z"
       id="path4"
       transform="scale(0.26458333)" /><path
       style="fill:#000000;stroke-width:0.337762"
       d="m 200.08851,597.30549 c -1.02424,5.12156 1.19546,10.54271 -0.57723,15.60963 -1.3459,4.67296 -4.49986,9.66955 -9.57673,10.61314 -9.87286,0.15525 -19.81794,-0.0376 -29.64598,0.33347 -1.45555,1.24311 -0.32628,3.82522 -0.68271,5.59648 0.088,6.0493 -0.17543,12.16915 0.13036,18.17473 1.23739,1.46452 3.82696,0.33127 5.5984,0.6885 10.98871,0 21.97742,0 32.96612,0 -1.35077,12.79873 -3.24876,25.56204 -3.87371,38.42442 0.0912,3.4899 -0.35951,7.11153 0.22906,10.51196 2.49094,0.86897 5.4859,0.13402 8.17014,0.37691 23.18245,0 46.3649,0 69.54736,0 1.96101,-0.75375 0.42886,-3.37004 0.52002,-4.95008 -1.71693,-10.82656 -4.13114,-21.54917 -4.47452,-32.52878 -0.64262,-14.29373 -0.66535,-29.00735 5.25783,-42.37232 2.72945,-6.54957 6.1221,-12.83497 9.12112,-19.28204 0.0837,-2.19918 -2.7951,-1.12548 -4.12703,-1.40778 -25.95685,-0.14124 -51.91425,-0.0661 -77.87135,-0.0858 -0.23705,0.0992 -0.4741,0.19834 -0.71115,0.29752 z"
       id="path5"
       transform="scale(0.26458333)" /><path
       style="fill:#000000;stroke-width:0.337762"
       d="m 322.53854,488.2063 c -1.6776,1.02181 -1.31033,3.53788 -2.05451,5.18447 -0.4457,1.7956 -0.87653,3.59664 -1.41745,5.36664 -6.93859,-3.10928 -13.92285,-7.19339 -21.79682,-6.87023 -6.15099,-0.26511 -12.52668,0.32563 -17.97864,3.42466 -8.38719,4.47219 -12.84181,14.49726 -11.79397,23.77662 0.38909,8.33258 5.059,16.36446 12.40748,20.43198 8.25077,5.1323 18.8083,4.41761 27.45742,0.69357 4.0154,-1.5836 7.82502,-3.62532 11.6821,-5.54956 1.3549,3.17076 1.96144,6.82515 3.95881,9.65458 5.5847,1.17886 11.39946,1.14182 17.08826,1.62653 6.92103,0.35476 13.86185,0.77296 20.7774,0.94429 1.82233,-1.12463 -0.33088,-3.21164 -0.92856,-4.47125 -11.25669,-17.02594 -22.64932,-33.96667 -34.18896,-50.80253 -1.0476,-1.03117 -1.59114,-3.21303 -3.21256,-3.40977 z"
       id="path6"
       transform="scale(0.26458333)" /><path
       style="fill:#000000;stroke-width:0.337762"
       d="m 475.12791,350.81821 c -14.32917,0.0156 -29.00109,2.47043 -41.76731,9.22592 -9.87457,5.23995 -16.76123,14.42216 -22.82972,23.53108 -2.01354,2.96776 -5.16976,5.35561 -8.89104,5.66402 -11.64973,2.42239 -23.61384,3.32554 -35.09919,6.51323 -1.17462,0.20575 -3.48951,1.15722 -2.12025,2.59919 6.94191,2.45177 14.26297,3.80369 21.47165,5.28743 4.90574,0.93841 9.85239,1.6413 14.81074,2.23438 0.64337,8.0927 4.40909,15.42051 7.99159,22.54914 5.65516,10.62542 15.17987,18.63178 25.72749,24.1475 5.063,2.79858 10.40253,5.036 15.64105,7.47264 -9.88843,4.60444 -19.81531,9.12111 -29.80356,13.51774 -0.52854,-3.17097 -0.16587,-7.71803 -3.71539,-9.2469 -4.62155,-2.54051 -10.81125,2.39479 -9.34519,7.44133 0.72323,2.30104 2.31797,4.24946 3.47723,6.28422 -6.51844,1.53312 -12.58078,4.56993 -19.05322,6.20242 -3.5385,0.70955 -7.19354,0.54858 -10.73648,1.17096 -1.62619,1.27677 0.75072,2.93488 1.22702,4.21345 43.36509,64.87291 88.36874,128.63032 132.49651,192.98288 1.82399,2.25338 3.31345,5.0529 5.83626,6.58183 2.13884,0.20646 1.42622,-2.79829 1.83447,-4.08324 4.23957,-34.10792 8.25705,-68.24518 12.62334,-102.33627 1.5876,-9.27722 3.29404,-19.34615 9.87493,-26.54667 6.14932,-6.4365 15.51651,-7.54049 23.93296,-7.96177 14.49701,-0.7118 29.05707,-1.35254 43.49877,-2.23046 5.5102,-0.43464 11.11696,0.22545 16.59323,-0.69202 3.32567,-1.12634 3.73469,-5.29317 4.29525,-8.25143 0.21031,-1.40458 0.25084,-2.82753 0.4354,-4.23456 6.02508,4.32661 12.24319,9.41049 19.99592,9.83073 8.49329,0.90282 17.71022,-0.61137 24.24069,-6.50402 6.77013,-5.40505 9.49813,-14.57781 8.17063,-22.96442 -0.9828,-8.83511 -6.93902,-17.27757 -15.64591,-19.88179 -7.70764,-2.22759 -16.13151,-2.21129 -23.8293,0.0439 -3.9574,1.25743 -7.49501,3.47093 -11.13437,5.40982 -1.52588,-3.04703 -2.18328,-6.55446 -3.96607,-9.43359 -4.23181,-1.34928 -8.8168,-1.34726 -13.2107,-1.92709 -18.61592,-1.48277 -37.29524,-1.96118 -55.94612,-2.83589 -20.04227,-7.6771 -39.87611,-15.86457 -59.53192,-24.46467 11.91912,-5.44707 24.54935,-10.76855 33.4567,-20.77223 6.59552,-6.74729 10.51979,-15.5555 13.85443,-24.24779 1.20966,-3.8305 3.04424,-8.05395 7.15897,-9.47977 9.17048,-3.46813 19.67025,-1.60972 28.50727,-6.16416 1.36196,-0.3991 2.33166,-2.67438 0.41824,-3.02469 -13.01139,-3.43075 -26.33819,-5.59545 -39.29389,-9.22447 -5.7636,-4.67269 -8.76893,-11.95659 -14.00766,-17.23846 -7.106,-7.51624 -16.71008,-12.1721 -26.41476,-15.37766 -10.11456,-3.12594 -20.6948,-3.89569 -31.22869,-3.77974 z"
       id="path7"
       transform="scale(0.26458333)" /><path
       style="fill:#000000;stroke-width:0.337762"
       d="m 425.8542,638.33371 c -0.87542,1.79531 0.27472,4.02745 0.19206,5.97181 3.54917,31.2742 7.89535,62.51758 10.38606,93.86285 0.36174,1.36266 -0.16249,2.40683 -1.39467,3.08113 -4.82119,4.1631 -9.89527,8.11893 -14.74003,12.29016 -0.94171,2.00729 2.08906,2.08376 3.23956,2.77066 17.09243,6.68549 35.62987,7.40161 53.68749,9.06642 5.25316,0.1982 10.47755,-0.95955 15.71152,-1.34361 5.84492,-0.69894 11.72189,-1.22205 17.53669,-2.12198 1.63374,-1.15959 -0.40999,-3.07366 -0.84157,-4.38648 -7.01325,-12.49092 -16.07818,-23.66278 -24.03217,-35.54501 -19.25241,-27.54051 -38.05348,-55.39908 -57.64036,-82.70354 -0.49264,-0.70029 -1.14349,-1.59416 -2.10458,-0.94241 z"
       id="path8"
       transform="scale(0.26458333)" /><path
       style="fill:#000000;stroke-width:0.337762"
       d="m 405.30216,444.45554 c -4.06932,-0.11638 -8.0812,4.24761 -6.86937,8.28705 1.23272,2.71656 4.13786,4.57281 7.15172,4.00828 5.10762,-0.4384 7.8018,-8.32799 3.26482,-11.29722 -1.03763,-0.70057 -2.3029,-1.01618 -3.54717,-0.99811 z"
       id="path9"
       transform="scale(0.26458333)" /><path
       style="display:inline;fill:#000000;stroke-width:0.337762"
       d="m 389.44185,423.66667 c -4.1045,-0.0958 -6.88507,3.84622 -8.40777,7.20185 -2.04686,5.58712 2.14473,12.27478 8.0832,12.82837 6.34041,1.02703 12.43944,-5.01651 11.57628,-11.35989 -0.19096,-4.70721 -4.43289,-8.39929 -9.02129,-8.60107 -0.74098,-0.0753 -1.48652,-0.0756 -2.23042,-0.0693 z m 0.84507,5.44707 c 3.13255,-0.44983 6.15674,2.99406 4.61916,5.96098 -1.05787,3.66836 -6.72457,4.39765 -8.36226,0.79822 -1.4686,-2.5391 0.60317,-5.64214 2.89275,-6.72753 0.28227,-0.0306 0.56679,-0.0315 0.85035,-0.0317 z"
       id="path10"
       transform="scale(0.26458333)" /><path
       style="display:inline;fill:#000000;stroke-width:0.337762"
       d="m 390.52638,428.26076 c -4.57893,0.002 -7.07916,6.5983 -3.51154,9.55102 3.04302,2.85671 8.77995,0.49273 8.89199,-3.6758 0.91557,-3.2233 -2.39667,-5.9503 -5.38045,-5.87522 z"
       id="path11"
       transform="scale(0.26458333)" /><path
       style="display:inline;fill:#000000;stroke-width:0.337762"
       d="m 372.72592,415.29715 c -5.32239,-0.40915 -8.0885,7.48397 -4.18971,10.85062 3.19146,3.13313 9.36432,1.56055 10.43963,-2.86439 1.15827,-3.31969 -0.78915,-7.58484 -4.54462,-7.89519 -0.5637,-0.0895 -1.13562,-0.10544 -1.7053,-0.091 z"
       id="path12"
       transform="scale(0.26458333)" /><path
       style="display:inline;fill:#000000;stroke-width:0.337762"
       d="m 353.00839,407.19218 c -5.17047,-0.35342 -8.40563,7.07364 -4.54396,10.5742 2.9266,3.33342 8.93721,2.05287 10.40004,-2.10574 1.61655,-3.03967 0.13463,-7.35535 -3.35849,-8.18677 -0.80801,-0.24099 -1.65742,-0.31417 -2.49759,-0.28169 z"
       id="path13"
       transform="scale(0.26458333)" /><path
       style="display:inline;fill:#000000;stroke-width:0.337762"
       d="m 329.99569,406.20726 c -2.34863,0.4934 -4.04002,2.8424 -4.80255,5.01762 -0.38853,2.1257 -0.63581,4.7988 0.78569,6.57119 3.03315,1.08055 6.67009,0.33419 9.40259,-1.28706 3.0024,-2.39578 1.18496,-7.07349 -1.47243,-8.97643 -1.11137,-0.8639 -2.50186,-1.35365 -3.9133,-1.32532 z"
       id="path14"
       transform="scale(0.26458333)" /><path
       style="display:inline;fill:#000000;stroke-width:0.337762"
       d="m 286.14598,431.5922 c -3.52989,-0.41961 -7.12683,2.60702 -6.63321,6.27367 0.27817,2.75285 2.65583,5.54069 5.48732,5.73273 3.76777,-0.14721 6.3919,-3.95683 7.05812,-7.34587 0.34566,-1.30364 1.60877,-4.01423 -0.59842,-4.28846 -1.76253,-0.21156 -3.53825,-0.35349 -5.31381,-0.37207 z"
       id="path15"
       transform="scale(0.26458333)" /><path
       style="display:inline;fill:#000000;stroke-width:0.337762"
       d="m 271.62154,447.5805 c -2.96712,0.13135 -5.02367,3.14308 -5.7756,5.75977 -1.11017,5.19005 6.244,8.75044 10.10911,5.60078 3.46683,-2.60604 3.44094,-9.02906 -0.87145,-10.7787 -1.08041,-0.49076 -2.28517,-0.63736 -3.46206,-0.58185 z"
       id="path16"
       transform="scale(0.26458333)" /><path
       style="display:inline;fill:#000000;stroke-width:0.337762"
       d="m 261.75849,467.03481 c -2.57857,-0.20978 -5.00742,1.36405 -5.7545,3.86316 -1.83568,3.90745 1.5147,8.7606 5.77758,8.5562 5.55475,0.0426 8.0957,-8.42024 3.55706,-11.50635 -1.05515,-0.68414 -2.33656,-0.93822 -3.58014,-0.91301 z"
       id="path18"
       transform="scale(0.26458333)" /><path
       style="display:inline;fill:#000000;stroke-width:0.337762"
       d="m 254.48406,486.43239 c -4.0536,0.1696 -8.02327,4.43321 -6.24596,8.51464 1.62719,3.80598 7.0092,5.91507 10.32286,2.90727 2.78012,-2.22133 3.67519,-6.9368 0.72566,-9.39995 -1.28082,-1.22566 -3.03659,-1.9499 -4.80256,-2.02196 z"
       id="path19"
       transform="scale(0.26458333)" /><path
       style="display:inline;fill:#000000;stroke-width:0.337762"
       d="m 249.46711,508.51162 c -3.47165,-0.30522 -6.47817,2.62285 -6.6972,6.01507 -0.59898,5.32111 6.68484,8.45419 10.4924,5.07963 3.48388,-2.83062 2.89998,-9.77282 -1.83196,-10.89745 -0.64253,-0.14948 -1.30452,-0.20436 -1.96324,-0.19725 z"
       id="path20"
       transform="scale(0.26458333)" /><path
       style="display:inline;fill:#000000;stroke-width:0.337762"
       d="m 247.17402,530.13368 c -4.75229,0.10336 -7.83004,6.84773 -4.53934,10.43501 1.87449,2.15612 5.11385,3.03471 7.66628,1.52454 4.141,-1.79476 5.30531,-8.34393 1.28574,-10.88887 -1.30426,-0.83208 -2.88668,-1.10326 -4.41268,-1.07068 z"
       id="path21"
       transform="scale(0.26458333)" /><path
       style="display:inline;fill:#000000;stroke-width:0.675524"
       d="m 395.97741,229.05426 c -31.14042,0.79628 -62.36044,4.68004 -92.2989,13.50277 -80.89914,22.97064 -151.66469,78.57425 -193.81802,151.25996 -23.916541,41.04955 -39.140184,87.3014 -43.599016,134.62819 -2.880801,36.89642 -1.43163,74.37979 7.561665,110.40282 20.05002,84.96995 74.626091,161.69213 149.853731,206.44568 29.27365,17.7178 61.07891,31.39649 94.49933,38.99478 23.33169,5.4703 47.16624,10.28409 71.26098,9.09641 22.92395,-0.0682 45.92391,-0.85954 68.51626,-5.06292 41.16996,-6.95586 80.44537,-23.24795 115.83312,-45.18501 55.94146,-34.80201 100.76566,-86.86839 127.18321,-147.1938 17.08717,-38.32548 26.35772,-79.95246 27.84164,-121.86058 1.64836,-21.45295 -1.11124,-42.89239 -3.72691,-64.14997 -10.63745,-70.25554 -44.62466,-136.83925 -95.77979,-186.23463 -50.85417,-50.34913 -118.7732,-82.69026 -189.71899,-91.47663 -14.46639,-1.7764 -29.01621,-3.25248 -43.60831,-3.16707 z m -0.17547,20.47816 c 74.54767,0.094 148.9653,27.01447 205.50144,75.90962 54.15238,46.22241 90.53181,111.97078 102.89414,181.89769 5.72551,28.9965 5.2989,58.89428 2.56075,88.21032 -4.84581,49.79925 -22.5161,97.91985 -50.39631,139.47836 -15.63318,23.75201 -34.73423,44.98794 -56.17692,63.57744 -3.00092,2.13195 -6.50713,4.61186 -10.10912,5.12845 C 575.50126,783.98287 562.07188,763.37845 547.92904,743.30652 474.74259,637.28546 401.2118,531.50092 328.13996,425.40234 324.60507,420.62686 322.25957,415.1712 318.07785,410.86052 298.2395,383.3341 279.38349,355.10631 259.8423,327.36654 c -7.33456,-11.14652 -16.05884,-21.78748 -21.365,-34.02267 11.94584,-8.22058 25.4088,-14.0638 38.64028,-19.99518 37.42564,-15.88484 78.1182,-23.55736 118.68436,-23.81627 z m -184.83775,64.50995 c 28.36004,39.73934 55.32494,80.43995 82.8441,120.7434 26.99662,37.8496 53.98525,75.70556 80.43047,113.94528 56.07103,80.65148 112.26825,161.21658 168.25082,241.9286 7.48122,11.1358 15.46367,22.22494 22.45604,33.51718 -16.99004,11.88664 -35.95812,20.98632 -55.27024,28.61163 -36.07356,13.79034 -74.63334,20.90215 -113.23616,20.3346 -36.07009,0.44579 -72.11124,-6.40899 -106.08903,-18.30487 C 206.156,825.13428 136.94088,756.74389 105.6523,673.20634 89.468212,629.76059 81.65355,582.6299 86.418992,536.433 c 2.605668,-31.66014 9.320493,-62.88339 21.377298,-92.29675 19.72012,-48.75218 52.0078,-92.43955 93.09704,-125.28869 2.93058,-1.95849 6.82726,-5.13301 10.07086,-4.80519 z m 111.79798,103.47531 c -0.0711,0.31903 0.0193,-0.26644 0,0 z"
       id="path22"
       transform="scale(0.26458333)" /><path
       style="display:inline;fill:#000000;stroke-width:0.675524"
       d="m 394.47464,226.91554 c -55.97113,0.69749 -111.81812,14.97357 -160.74581,42.37465 -76.87349,42.42769 -135.260224,116.51742 -158.86939,201.05196 -23.482335,82.21519 -13.331692,173.08179 26.7379,248.55853 33.17426,63.5536 87.86221,115.3856 152.90255,145.47777 29.30876,14.34704 61.22571,22.62012 93.17117,28.38084 20.96767,4.05247 42.464,2.46612 63.72437,2.48128 89.79116,-1.83174 176.97341,-44.61404 236.22542,-111.67833 55.90682,-62.86887 86.62877,-147.42196 83.52274,-231.51295 -1.31263,-50.86972 -14.31038,-101.37501 -37.98818,-146.43995 -19.21101,-37.44347 -46.44242,-70.41451 -77.91488,-98.20612 -46.84902,-39.92175 -104.72455,-66.90707 -165.67226,-76.03798 -18.21352,-2.86515 -36.62986,-4.52455 -55.09363,-4.4497 z m 2.30628,25.2187 c 39.13481,-0.50131 78.12972,7.6968 114.54632,21.77453 41.5212,16.35814 79.65078,41.5725 110.29735,74.08178 21.61422,22.19867 39.03309,48.31708 52.87609,75.97087 17.45197,35.89342 28.38177,75.1004 31.41582,114.91845 3.9165,59.94538 -8.79977,121.23368 -38.50785,173.63362 -14.61303,26.07558 -32.6753,50.28767 -54.39725,70.88474 -6.81315,6.38124 -12.94404,14.01408 -21.72297,17.79229 -5.35634,-5.94963 -9.5627,-13.56708 -14.47582,-20.15953 C 494.0486,661.25161 411.02108,541.65391 328.34977,421.81095 c 2.2803,-2.12048 6.77505,-1.67812 9.12881,-4.46083 5.04151,-6.01217 -3.57388,-16.32198 -10.33342,-12.22146 -2.58655,1.38182 -3.12875,4.59059 -5.06247,6.40957 -3.42395,-2.52879 -5.37149,-7.07993 -8.16698,-10.3664 -21.55607,-30.96799 -43.14999,-61.9077 -64.52123,-93.00243 -2.62352,-4.56705 -6.47545,-8.81857 -7.68601,-13.99695 8.63875,-6.22357 18.6657,-10.53293 28.24273,-15.21382 33.63419,-15.34333 70.19925,-24.39836 107.11092,-26.41638 6.56869,-0.28551 13.14416,-0.40357 19.7188,-0.40801 z M 209.08671,316.788 c 3.99746,3.36409 6.50715,8.59812 9.84946,12.70407 22.44247,32.09577 44.90203,64.21033 66.11274,97.13727 2.34844,2.76683 -2.62947,3.06421 -4.21411,4.26293 -5.24329,2.75055 -4.15758,10.70793 0.53303,13.54348 4.50386,3.18977 9.91625,-0.66159 12.19638,-4.72868 3.18747,1.80811 4.8833,6.45996 7.51248,9.33245 51.21428,71.04492 100.56558,143.40791 150.72583,215.19629 34.53195,50.10484 69.94744,99.60326 103.93512,150.07994 1.47354,3.09449 4.83014,5.85535 5.23532,9.2436 -6.37267,5.81945 -14.63279,9.23774 -22.08324,13.49423 -35.046,18.47368 -73.98234,29.37889 -113.40764,32.72498 -21.56575,0.84162 -43.26692,2.04467 -64.7344,-0.88304 -49.21197,-5.61527 -97.16691,-23.04613 -138.0895,-51.01777 C 165.93153,779.28883 122.44483,721.48776 102.00834,655.91537 95.30197,634.16556 90.41582,611.73886 88.459405,589.04548 c -0.814701,-21.6791 -1.726351,-43.51506 1.565643,-65.04955 7.645399,-73.67565 44.687452,-143.17278 99.533172,-192.6099 6.12307,-5.00604 11.575,-11.44253 18.96511,-14.55977 0.1859,-0.0306 0.37478,-0.0501 0.56338,-0.0383 z"
       id="path23"
       transform="scale(0.26458333)" /><path
       style="display:inline;fill:#000000;stroke-width:0.675524"
       d="m 394.47464,226.91554 c -55.97113,0.69749 -111.81812,14.97357 -160.74581,42.37465 -76.87349,42.42769 -135.260224,116.51742 -158.86939,201.05196 -23.482335,82.21519 -13.331692,173.08179 26.7379,248.55853 33.17426,63.5536 87.86221,115.3856 152.90255,145.47777 29.30876,14.34704 61.22571,22.62012 93.17117,28.38084 20.96767,4.05247 42.464,2.46612 63.72437,2.48128 89.79116,-1.83174 176.97341,-44.61404 236.22542,-111.67833 55.90682,-62.86887 86.62877,-147.42196 83.52274,-231.51295 -1.31263,-50.86972 -14.31038,-101.37501 -37.98818,-146.43995 -19.21101,-37.44347 -46.44242,-70.41451 -77.91488,-98.20612 -46.84902,-39.92175 -104.72455,-66.90707 -165.67226,-76.03798 -18.21352,-2.86515 -36.62986,-4.52455 -55.09363,-4.4497 z m 2.35906,25.22398 c 38.89812,-0.51127 77.65173,7.62168 113.87919,21.52649 41.76084,16.3518 80.11328,41.65473 110.9117,74.32454 21.61422,22.19867 39.03309,48.31708 52.87609,75.97087 17.45197,35.89342 28.38177,75.1004 31.41582,114.91845 3.9165,59.94538 -8.79977,121.23368 -38.50785,173.63362 -14.61303,26.07558 -32.6753,50.28767 -54.39725,70.88474 -6.81315,6.38124 -12.94404,14.01408 -21.72297,17.79229 -5.35634,-5.94963 -9.5627,-13.56708 -14.47582,-20.15953 C 494.0486,661.25161 411.02108,541.65391 328.34977,421.81095 c 2.2803,-2.12048 6.77505,-1.67812 9.12881,-4.46083 5.04151,-6.01217 -3.57388,-16.32198 -10.33342,-12.22146 -2.58655,1.38182 -3.12875,4.59059 -5.06247,6.40957 -3.42395,-2.52879 -5.37149,-7.07993 -8.16698,-10.3664 -21.55607,-30.96799 -43.14999,-61.9077 -64.52123,-93.00243 -2.62352,-4.56705 -6.47545,-8.81857 -7.68601,-13.99695 8.64168,-6.22618 18.67233,-10.53612 28.25328,-15.21778 33.84699,-15.43113 70.65804,-24.52901 107.81091,-26.43311 6.34985,-0.26715 12.70582,-0.37576 19.06104,-0.38204 z m -187.41583,64.34766 c 8.98872,10.57919 16.14623,22.6205 24.2638,33.8753 17.48367,25.81478 35.48111,51.32988 52.08366,77.71291 -1.9735,2.43792 -7.11002,2.40836 -7.91894,6.3304 -2.95205,6.36373 5.57255,14.57347 11.55121,9.80566 2.56894,-1.83155 4.89178,-7.2744 6.93961,-1.74836 53.4312,73.88922 104.78001,149.25271 157.00769,223.99137 33.27149,48.2907 67.42097,95.97902 100.1642,144.62805 2.52041,4.23134 5.88701,8.15373 7.71322,12.71434 -6.33607,5.20631 -14.16702,8.63962 -21.29719,12.75388 -35.71155,18.77502 -75.30825,30.21952 -115.53478,33.28073 -21.20555,0.78244 -42.53785,1.96708 -63.64267,-0.93594 -49.21197,-5.61527 -97.16691,-23.04613 -138.0895,-51.01777 C 165.93153,779.28883 122.44483,721.48776 102.00834,655.91537 95.30518,634.17955 90.419672,611.76693 88.476557,589.08639 87.655675,567.45914 86.721035,545.67534 89.994102,524.1898 97.756364,449.87437 135.22417,379.67785 190.9274,330.16464 c 5.85673,-4.77787 11.29958,-11.24309 18.49047,-13.67746 z"
       id="path24"
       transform="scale(0.26458333)" /><path
       style="display:inline;fill:#000000;stroke-width:0.675524"
       d="m 475.37002,348.75008 c -18.04206,0.43224 -37.71586,3.10283 -51.63673,15.62546 -6.49403,5.52292 -11.07472,12.67418 -16.17036,19.35668 -5.87127,5.08006 -14.39231,4.23885 -21.53631,5.98775 -8.03951,1.65496 -16.73748,1.99331 -24.1302,5.76268 -0.99063,2.1659 -0.25059,5.05612 2.55168,5.16539 10.99197,3.57656 22.48986,5.1535 33.78019,7.49937 3.0115,9.44303 6.37895,19.0512 12.39297,27.14369 8.10407,11.53667 20.73377,18.51714 33.17986,24.41915 -1.4878,2.86634 -6.94258,3.36563 -9.8646,5.36061 -3.69021,1.30204 -7.28679,3.90657 -11.08853,4.45297 -1.8067,-2.89997 -3.07816,-7.04208 -7.02704,-7.65111 -6.93182,-1.92805 -13.70558,6.41681 -9.85261,12.71544 1.99199,4.00146 -5.38825,3.51934 -7.73777,5.28545 -7.30365,2.83354 -15.21175,3.22034 -22.91206,3.43118 44.5728,66.84686 90.81524,132.56612 136.32005,198.77968 3.2848,4.40634 6.73404,9.00384 11.62245,11.73064 5.09318,-38.71137 9.12454,-77.59784 14.76911,-116.23975 1.66763,-9.73685 5.61023,-21.08604 15.91316,-24.54905 11.04207,-3.57986 22.92516,-2.59758 34.36304,-3.55666 13.17474,-0.49758 26.36886,-1.88392 39.52905,-1.72219 4.59929,-0.6 6.90983,-5.53254 7.38195,-9.70143 1.73011,-1.28285 3.67525,2.03354 5.53772,2.4059 4.90332,3.14533 10.55489,4.82981 16.40099,4.17745 7.54612,0.67872 15.29216,-1.13988 21.06133,-6.20337 6.92159,-5.40435 10.91182,-14.23585 9.88614,-22.98499 0.009,-12.23568 -9.41067,-24.24073 -22.0126,-25.09072 -9.91482,-1.1121 -20.52076,-0.60065 -29.16102,4.9279 -2.67293,-1.65543 -1.73059,-6.43362 -4.38827,-8.15511 -23.10102,-3.56921 -46.67465,-3.43927 -70.01046,-4.72208 -17.90805,-6.77772 -35.55897,-14.2011 -53.1461,-21.76587 1.0091,-2.73202 5.94719,-3.40433 8.47398,-5.33799 10.22419,-5.05168 19.49924,-12.52529 25.79965,-22.08408 4.26055,-6.8995 7.30756,-14.43925 10.36112,-21.92684 4.39906,-6.35962 13.4347,-4.99698 20.04672,-6.55734 6.66307,-0.66701 15.42368,-2.60907 17.81036,-9.49297 -14.17879,-3.34544 -28.6867,-5.5447 -42.6029,-9.88614 -6.8307,-2.91295 -8.88176,-10.97723 -14.04748,-15.77851 -15.01313,-16.16921 -38.5559,-21.36695 -59.85648,-20.82119 z"
       id="path25"
       transform="scale(0.26458333)" /><path
       style="display:inline;fill:#000000;stroke-width:0.675524"
       d="m 422.67383,635.41523 c 4.09903,32.42286 8.20867,64.86768 11.11317,97.42198 0.17168,3.07202 0.96948,7.10034 -2.51739,8.71453 -5.29975,4.55155 -10.91302,8.73279 -16.09648,13.41945 19.77375,9.80763 42.3474,11.03405 64.01914,12.57901 11.76208,-0.91296 23.85405,-2.4247 35.31727,-4.13363 -5.55041,-14.35686 -16.15539,-25.97368 -24.41268,-38.77947 -21.00645,-30.19896 -41.85157,-60.51157 -62.75373,-90.78402 -1.49007,0.5561 -6.20806,-1.4808 -4.6693,1.56215 z"
       id="path26"
       transform="scale(0.26458333)" /><path
       style="display:inline;fill:#000000;stroke-width:0.477668"
       d="m 391.58136,226.92493 c -17.64359,0.073 -35.20355,2.46135 -52.63956,5.07 -70.49218,12.01438 -136.79967,47.63674 -185.65175,99.85554 -50.35636,53.21426 -82.552573,123.3105 -89.397649,196.25061 -7.889751,79.45841 13.482729,161.51319 59.582519,226.81466 29.65575,42.42838 69.61334,77.53354 115.33049,101.75307 25.02533,13.53916 51.83183,23.79823 79.57901,30.098 18.18338,4.12237 36.62699,8.24574 55.30187,8.81833 31.0688,0.74635 62.36281,-0.12496 92.84007,-6.43949 56.41363,-11.66652 109.37487,-38.79954 152.52357,-76.89232 19.60292,-17.68627 37.60756,-37.26755 52.55704,-59.09645 34.93128,-50.199 56.00996,-109.99815 59.21305,-171.11842 1.22928,-20.62092 0.62155,-41.32426 -2.01198,-61.79699 -8.75991,-76.49582 -45.59871,-149.29071 -101.65596,-202.05373 -44.92319,-42.62635 -102.01082,-72.39235 -162.79272,-84.23679 -23.96603,-4.65779 -48.32978,-7.58343 -72.778,-7.02602 z m 3.88572,25.03652 c 74.0355,-0.19581 147.83632,26.7307 204.08377,74.92687 42.4729,36.04433 73.64011,84.56295 91.31841,137.21461 7.6745,23.9601 13.0999,48.76141 14.9747,73.879 1.01911,16.43663 1.33379,32.96799 -0.63009,49.35129 -3.63204,48.61799 -19.26392,96.24644 -45.08966,137.593 -12.69823,20.60798 -27.78752,39.72296 -45.07666,56.67545 -7.22507,6.87636 -13.89192,14.99591 -23.15629,19.18252 -1.9401,-0.28225 -2.63372,-3.05325 -4.01375,-4.28602 C 566.49628,766.49198 545.8723,735.95061 524.80598,705.72206 462.13086,614.96372 399.21772,524.3706 336.57453,433.5941 c -2.71295,-4.01015 -5.51809,-7.96149 -8.13956,-12.03161 0.28803,-1.68263 3.0027,-0.77631 4.22904,-1.49924 3.43471,-0.74736 7.28313,-3.49689 6.54181,-7.41598 -0.63044,-5.1263 -5.95364,-10.33134 -11.28864,-8.04012 -3.02593,1.11963 -4.14424,4.32911 -5.65831,6.82262 -1.8579,-0.0642 -2.54506,-2.91956 -3.86892,-4.03219 -16.45289,-23.02768 -32.15717,-46.57813 -48.48423,-69.69567 -9.43651,-13.95277 -20.0545,-27.22002 -27.95291,-42.1486 -1.20414,-2.49546 2.69624,-3.10112 4.02483,-4.25 45.25772,-25.99376 97.35001,-39.38204 149.48944,-39.34186 z m -186.2737,64.77998 c 2.91397,1.38584 4.07499,5.00773 6.17561,7.31788 23.49713,33.85769 46.79792,67.86083 69.45483,102.28763 0.81899,0.90238 1.7424,2.6951 -0.14865,2.90862 -3.89252,0.71937 -7.81816,3.78282 -7.29376,8.14181 -0.20541,5.41195 5.96589,10.46252 11.04607,7.54007 2.27588,-0.83756 3.38,-3.26908 5.02951,-4.6638 2.84931,1.5456 4.27559,5.01175 6.43009,7.37404 34.86075,47.69623 68.13504,96.52306 102.00212,144.92526 45.77229,65.94974 91.74708,131.76298 137.4946,197.72458 7.32728,10.92149 15.1275,21.59732 21.99078,32.79152 -0.79785,2.39383 -3.91774,3.15294 -5.74802,4.64594 -49.78693,30.43538 -108.70227,44.63401 -166.85236,43.17168 -41.21147,-1.47552 -82.41506,-10.02788 -119.99284,-27.26543 -53.76712,-24.1379 -99.99565,-64.4632 -132.03168,-113.85502 -23.75022,-36.39417 -38.966562,-78.03562 -45.709024,-120.8993 -3.083209,-16.7289 -3.632472,-33.76265 -3.403567,-50.73191 -0.191506,-16.89266 2.424668,-33.65017 4.661159,-50.34811 8.415432,-52.30178 31.624872,-101.89007 65.193072,-142.76513 13.611,-16.77143 29.14598,-31.97329 45.98963,-45.47537 1.73687,-1.14034 3.58921,-2.5936 5.71243,-2.82496 z"
       id="path27"
       transform="scale(0.26458333)" /><path
       style="display:inline;fill:#800000;stroke:none;stroke-width:0;stroke-dasharray:none"
       d="m 391.58136,226.92493 c -17.64359,0.073 -35.20355,2.46134 -52.63956,5.07 -70.49218,12.01438 -136.79967,47.63674 -185.65175,99.85554 -50.35636,53.21426 -82.552573,123.3105 -89.397649,196.25061 -7.889751,79.45841 13.482729,161.51319 59.582509,226.81466 29.65576,42.42838 69.61334,77.53353 115.3305,101.75307 25.02533,13.53916 51.83183,23.79823 79.57901,30.098 18.18337,4.12237 36.62699,8.24574 55.30187,8.81832 31.0688,0.74636 62.3628,-0.12496 92.84006,-6.43949 56.41363,-11.66651 109.37487,-38.79953 152.52357,-76.89231 19.60292,-17.68628 37.60757,-37.26756 52.55704,-59.09646 34.93129,-50.199 56.00996,-109.99815 59.21306,-171.11841 1.22928,-20.62092 0.62154,-41.32427 -2.01199,-61.79699 -8.7599,-76.49582 -45.5987,-149.29071 -101.65595,-202.05373 -44.92319,-42.62635 -102.01082,-72.39235 -162.79272,-84.23679 -23.96603,-4.65779 -48.32978,-7.58343 -72.778,-7.02602 z m 3.88572,25.03652 c 74.0355,-0.19581 147.83631,26.7307 204.08377,74.92687 42.4729,36.04433 73.64011,84.56295 91.31841,137.2146 7.6745,23.96011 13.0999,48.76142 14.9747,73.879 1.0191,16.43664 1.33379,32.968 -0.63009,49.3513 -3.63205,48.61799 -19.26392,96.24643 -45.08966,137.593 -12.69823,20.60798 -27.78752,39.72296 -45.07667,56.67544 -7.22506,6.87637 -13.89192,14.99591 -23.15629,19.18253 -1.94009,-0.28226 -2.63372,-3.05326 -4.01375,-4.28602 C 566.49627,766.49198 545.87229,735.9506 524.80597,705.72206 462.13086,614.96371 399.21771,524.3706 336.57452,433.5941 c -2.71294,-4.01015 -5.51808,-7.9615 -8.13955,-12.03161 -10.17474,-14.15856 8.18823,12.06611 -6.73118,-9.53009 -3.35887,-4.70527 9.46224,13.49763 -3.31385,-4.63482 -16.45289,-23.02768 -32.15716,-46.57813 -48.48422,-69.69567 -9.43651,-13.95278 -20.0545,-27.22002 -27.95291,-42.1486 -1.20414,-2.49546 2.69624,-3.10112 4.02483,-4.25 45.25772,-25.99376 97.35001,-39.38205 149.48944,-39.34186 z m -186.27371,64.77998 c 2.91397,1.38583 4.07499,5.00773 6.17562,7.31787 23.49713,33.8577 46.79792,67.86084 69.45483,102.28764 9.39822,13.22348 0.0215,0.0321 9.42223,13.48026 1.87276,2.54303 3.48653,5.45819 5.64103,7.82048 34.86075,47.69622 68.13503,96.52306 102.00212,144.92525 45.77229,65.94974 91.74708,131.76299 137.49459,197.72458 7.32729,10.9215 15.12751,21.59733 21.99079,32.79153 -0.79785,2.39383 -3.91774,3.15294 -5.74802,4.64594 C 505.83963,858.17036 446.92429,872.36899 388.7742,870.90665 347.56273,869.43114 306.35914,860.87878 268.78136,843.64122 215.01424,819.50333 168.78571,779.17802 136.74968,729.7862 112.99946,693.39204 97.783117,651.75058 91.040655,608.88691 87.957447,592.15801 87.408184,575.12426 87.637088,558.155 c -0.191505,-16.89266 2.424668,-33.65018 4.661159,-50.34811 8.415433,-52.30178 31.624873,-101.89007 65.193073,-142.76513 13.611,-16.77143 29.14598,-31.97329 45.98963,-45.47537 1.73687,-1.14034 3.58921,-2.5936 5.71242,-2.82496 z"
       id="path1"
       transform="scale(0.26458333)"
       sodipodi:nodetypes="cccccccccccccccccccccccccccccccccccccccccccccccccccc" /><path
       style="fill:#800000;stroke:none;stroke-width:0;stroke-dasharray:none"
       d="m 75.583837,113.22436 2.571303,3.70202"
       id="path2" /></g></svg>
