<?xml version="1.0" encoding="UTF-8" standalone="no"?>
<!-- Created with Inkscape (http://www.inkscape.org/) -->

<svg
   version="1.1"
   id="svg1"
   width="1132.8"
   height="1461.3333"
   viewBox="0 0 1132.8 1461.3333"
   xmlns="http://www.w3.org/2000/svg"
   xmlns:svg="http://www.w3.org/2000/svg">
  <defs
     id="defs1" />
  <g
     id="g1">
    <path
       style="fill:#999"
       d="m 434.66669,1460.6844 c -8.11383,-1.1904 -19.9863,-4.1492 -28.26667,-7.0446 -14.39628,-5.0338 -43.49376,-20.4229 -52.99452,-28.0277 C 290.59026,1375.3318 119.88855,1129.2963 48.094741,985.56202 22.623167,934.56684 9.4705376,891.93915 2.5238294,837.86662 0.14276972,819.33267 -0.2227589,766.47111 1.9042609,748.26662 12.527137,657.3488 48.910015,579.22092 108.21965,519.96703 c 17.328,-17.31172 30.47824,-28.09572 50.69944,-41.57666 35.68646,-23.79122 75.83858,-39.85919 118.41426,-47.38668 19.53755,-3.4543 30.55693,-4.39357 62.93333,-5.36431 34.16733,-1.02444 42.97424,-2.31539 55.00282,-8.06253 21.293,-10.17358 28.67063,-28.79721 38.86573,-98.1102 2.41616,-16.42667 5.81093,-37.00495 7.54392,-45.72953 18.32825,-92.27161 56.17589,-185.255671 96.44137,-236.937122 10.14145,-13.01673 25.38024,-27.0387272 34.72892,-31.955876 6.89934,-3.628865 9.07888,-4.23925068 16.48392,-4.61635967 6.93209,-0.35302352 9.70325,0.006645 14.76805,1.91673957 11.06286,4.1721515 24.71419,14.2862031 40.21767,29.7966331 22.51371,22.523792 35.8867,41.739951 54.02467,77.630095 10.51699,20.81027 14.20823,31.682 14.96892,44.08761 1.2486,20.36237 -5.85501,32.99181 -40.59932,72.18117 -32.67003,36.8497 -35.8796,43.39128 -24.21043,49.34445 9.0758,4.63012 20.91643,5.46458 91.23045,6.42937 76.73799,1.05295 96.07348,2.4067 131.2,9.18585 125.95363,24.30806 208.20143,94.5105 244.78263,208.93363 24.4273,76.40681 21.8742,134.12637 -11.1823,252.79998 -24.9942,89.72992 -90.026,289.35991 -123.34575,378.63811 -67.86899,181.8508 -117.51585,246.7122 -202.52125,264.5851 -22.21916,4.6717 -27.50198,4.9929 -96,5.8368 -57.64465,0.7102 -69.16246,1.1237 -85.10883,3.0552 -31.27151,3.7877 -53.76664,8.4653 -70.09925,14.5764 -10.45903,3.9134 -14.95458,6.7486 -24.61752,15.5255 -14.21599,12.9124 -26.81539,20.3573 -40.44108,23.8962 -6.62399,1.7204 -22.13059,2.8598 -27.73333,2.0378 z m 364.72382,-274.094 c 2.65216,-2.6522 2.00003,-8.0825 -2.71838,-22.6359 -5.94257,-18.3292 -15.40722,-39.6056 -34.02506,-76.4879 -41.78641,-82.7796 -90.35823,-162.33241 -123.78535,-202.74045 -38.08251,-46.03565 -36.13073,-59.18589 20.32373,-136.93253 33.38656,-45.97853 49.8207,-76.13223 50.97418,-93.52851 0.44505,-6.71197 0.23896,-7.86659 -1.76112,-9.86666 -11.54609,-11.5461 -53.5736,20.09536 -108.93182,82.01204 -48.4698,54.21217 -82.60571,80.96976 -106.94651,83.83055 -10.34642,1.21602 -19.45339,-3.37564 -25.04746,-12.62873 -7.06751,-11.69029 -9.67469,-24.04222 -10.9785,-52.01235 -1.06923,-22.9378 -2.32437,-29.4147 -8.06155,-41.6 -4.38922,-9.32232 -7.84915,-13.37167 -13.76598,-16.11108 -11.41418,-5.28459 -22.98633,0.64295 -28.13844,14.41319 -4.23312,11.31403 -4.9299,18.84751 -4.89256,52.89789 0.0439,40.07119 2.53934,75.82866 11.76142,168.53332 10.05662,101.09392 16.07221,142.28972 24.68783,169.06662 6.63212,20.6123 12.52382,29.8424 21.15227,33.1376 6.23884,2.3826 12.16287,1.6439 21.56347,-2.6892 18.48758,-8.5214 25.90047,-23.9533 25.94477,-54.0108 0.0266,-18.0292 -0.86783,-26.8323 -5.44874,-53.6293 -4.77404,-27.92668 -6.36336,-42.78307 -6.36336,-59.48257 0,-30.33016 6.13508,-45.941 19.46556,-49.53052 10.79396,-2.90651 29.16113,7.03038 48.34914,26.15756 19.10654,19.04596 30.7529,34.23908 63.40479,82.71393 53.03557,78.7364 100.05781,136.8403 125.31386,154.8464 7.32527,5.2225 20.9586,12.5473 28.73613,15.4391 7.73341,2.8754 16.75638,3.2696 19.18768,0.8383 z M 634.66669,134.76212 c 7.09088,-3.16081 11.73583,-8.91882 11.72333,-14.53258 -0.0227,-10.18154 -14.06208,-25.861454 -30.40802,-33.961186 -8.12424,-4.025722 -10.08364,-4.570958 -16.33992,-4.546861 -14.6803,0.05654 -25.36355,10.354149 -26.58974,25.629907 -0.46546,5.79866 -0.17771,7.25514 2.25278,11.40245 4.76055,8.12327 13.90596,14.17938 26.05241,17.25196 8.86232,2.24182 27.00994,1.56423 33.30916,-1.24369 z"
       id="path1" />
  </g>
</svg>
