<?xml version="1.0" encoding="UTF-8" standalone="no"?>
<!-- Created with Inkscape (http://www.inkscape.org/) -->

<svg
   version="1.1"
   id="svg1"
   width="1871.2317"
   height="2158.8423"
   viewBox="0 0 1871.2317 2158.8423"
   xmlns="http://www.w3.org/2000/svg"
   xmlns:svg="http://www.w3.org/2000/svg">
  <defs
     id="defs1" />
  <g
     id="g1"
     transform="translate(896.60414,1039.5022)">
    <path
       style="fill:#000000;stroke-width:27"
       d="m -610.45246,1045.1119 c 30.25221,-105.48323 171.96075,-315.06803 185.52204,-274.38425 6.04554,18.13671 -14.62869,65.12913 -45.94275,104.42763 -31.31403,39.29859 -74.65125,110.93949 -96.30498,159.20202 -48.59931,108.3198 -72.99441,114.3826 -43.27431,10.7546 z m 510.636306,-31.5255 c -19.688666,-47.47433 11.48337,-269.49497 32.149035,-228.97913 7.574472,14.85 7.267347,81.675 -0.68256,148.5 -8.322507,69.95733 -21.671199,104.09813 -31.466529,80.47913 z M 463.94609,904.10783 C 313.96937,749.48882 290.9798,675.18572 433.03511,804.20243 540.07277,901.41566 649.10036,1042.4842 614.28467,1038.7174 602.13593,1037.403 534.48359,976.82873 463.94609,904.10783 Z M 168.57168,892.60727 c -11.35102,-97.22979 13.66551,-127.54746 42.7357,-51.79176 24.23686,63.1602 19.88551,146.29176 -7.65733,146.29176 -13.22533,0 -29.01058,-42.525 -35.07837,-94.5 z M 807.70115,849.1397 C 733.7234,788.10764 667.12106,730.32602 659.69606,720.73616 c -7.425,-9.58986 -59.86044,-52.0065 -116.5233,-94.25916 -56.66286,-42.25275 -96.34332,-83.50308 -88.17885,-91.66761 17.24895,-17.24892 376.22298,252.77994 472.6587,355.54518 100.31629,106.90047 30.50703,82.9143 -119.95146,-41.21487 z m -1655.50506,33.23448 c 11.97432,-31.57641 196.47714,-233.79543 235.08126,-257.65407 53.65275,-33.15924 32.99511,-0.6327 -77.20014,121.55562 -59.19036,65.63232 -107.79036,128.44404 -108,139.58154 -0.2097,11.1375 -13.54362,20.25 -29.63112,20.25 -16.0875,0 -25.2,-10.67994 -20.25,-23.73309 z m 609.90317,-167.34393 c -51.67171,-30.09978 -228.20339,-282.0792 -299.37263,-427.32123 -116.8842,-238.536952 29.72445,-515.60177 272.83028,-515.60177 72.463,0 81.35003,-9.84871 94.00169,-104.17378 20.10239,-149.87451 99.580424,-305.08557 151.139004,-295.15629 23.4532796,4.51665 60.881976,40.70835 83.174877,80.42598 37.008469,65.93517 36.138449,77.06928 -10.006578,128.05896 -50.4796054,55.77933 -50.3738464,55.84512 89.738817,55.84512 176.22062,0 289.30883,75.68635 328.04783,219.55205 23.40948,86.936162 13.5732,142.42534755 -71.54352,403.59712 C 276.00986,641.04179 234.9977,692.31317 59.474505,686.10074 c -72.015642,-2.5488 -145.031743,9.45981 -162.257985,26.68608 -37.9418,37.94175 -72.84003,38.52126 -135.11726,2.24343 z M 38.696088,624.48926 C 105.52109,622.96475 180.26422,609.7676 204.79196,595.16231 249.43424,568.57961 443.69609,26.550442 443.69609,-71.427753 c 0,-140.529817 -154.79883,-251.393307 -310.29021,-222.222967 -89.59367,16.80788 -191.956422,92.75797 -125.0158074,92.75797 16.6683154,0 30.3060154,15.32817 30.3060154,34.0626 0,24.67266 -61.027263,33.97643 -221.380098,33.75 l -221.38009,-0.31257 -62.11992,91.742845 c -82.93104,122.478129 -78.40326,191.002885 23.79366,360.101545 159.91033,264.59313 239.59753,351.14091 302.78212,328.8498 31.24237,-11.02212 111.479328,-21.28761 178.304328,-22.81221 z M 119.62872,465.14969 C 97.363362,447.80135 45.285816,381.53645 3.9008636,317.89436 -80.705122,187.78667 -133.34564,190.62329 -108.33484,323.94236 c 12.021234,64.07871 5.77335,92.78874 -22.55869,103.66077 -30.57909,11.73429 -42.94296,-20.92053 -56.29754,-148.69029 -23.22216,-222.177694 -21.66199,-263.805592 9.88716,-263.805592 14.85,0 27,23.582934 27,52.406541 0,90.783961 45.65246,85.729591 133.944568,-14.829561 C 84.651897,-62.361207 129.36287,-47.751641 41.201742,71.492671 -12.658263,144.34221 -15.324648,159.60758 18.858351,199.4106 74.655174,264.3809 185.41017,471.39317 171.70567,485.09765 c -6.37696,6.37698 -29.81159,-2.59956 -52.07695,-19.94796 z M 25.196088,-524.89276 c -9.177813,-14.85 -28.1198524,-27 -42.093459,-27 -13.973607,0 -25.406541,12.15 -25.406541,27 0,14.85 18.942066,27 42.09345862,27 23.15139338,0 34.58435438,-12.15 25.40654138,-27 z M -890.76958,438.04196 c 7.61175,-19.83588 58.86792,-56.63712 113.90259,-81.78048 l 100.06308,-45.7152 -94.5,81.05415 c -102.57231,87.97794 -141.16119,102.97911 -119.46567,46.44153 z M 669.17792,366.02069 C 524.2172,344.80103 470.69609,323.64452 470.69609,287.56211 c 0,-24.1692 418.70346,56.24859 448.6182,86.16336 22.87449,22.87446 -58.32162,20.37342 -250.13637,-7.70478 z M -852.30391,69.107248 c 0,-14.85 36.45,-27 81,-27 44.55,0 81,12.15 81,27 0,14.85 -36.45,27 -81,27 -44.55,0 -81,-12.15 -81,-27 z m 1444.49997,-54 c 20.08449,-32.497389 221.37453,-32.497389 297,0 C 926.7203,31.231945 887.1041,38.890846 759.35261,40.209553 643.22354,41.408272 581.65538,32.162446 592.19606,15.107248 Z M -798.30391,-295.39276 c -39.82545,-22.76629 -50.89527,-38.82759 -27,-39.17457 69.48144,-1.00899 162,30.8721 162,55.82361 0,34.69781 -57.60579,27.59349 -135,-16.64904 z m 215.25765,-220.14075 c -96.42792,-64.48119 -215.25765,-177.6126 -215.25765,-204.93525 0,-12.9102 45.5625,13.51791 101.25,58.72917 55.6875,45.21126 131.625,106.24308 168.75,135.62631 81.83034,64.76601 38.74299,73.09329 -54.74235,10.57977 z M 579.3059,-542.42956 c 1.3806,-51.98685 181.91241,-304.49088 276.14016,-386.22834 126.62586,-109.841 133.31466,-85.5917 8.98506,32.57421 -50.74569,48.23001 -135.79569,152.69937 -189,232.15413 -53.20422,79.45476 -96.46062,134.12976 -96.12522,121.5 z M 147.8812,-636.3454 c -1.69814,-101.66841 73.33451,-266.54736 121.29967,-266.54736 35.38272,0 34.90407,8.93739 -3.62826,67.74519 -24.41361,37.25985 -60.61039,113.19735 -80.43733,168.75 -31.75859,88.98363 -36.19002,92.56032 -37.23408,30.05217 z m 242.26975,-85.16457 c -1.09242,-50.71047 87.8268,-218.55468 99.44736,-187.71744 7.08105,18.79095 -12.29544,73.46595 -43.05891,121.5 -30.76347,48.03408 -56.13828,77.83194 -56.38845,66.21744 z m -566.65888,-86.88279 c -19.07674,-134.00019 -18.78484,-173.3934 1.52829,-206.26074 34.04079,-55.0792 40.19233,-20.8387 22.5039,125.26074 -8.98951,74.25 -19.80401,110.7 -24.03219,81 z"
       id="path1" />
  </g>
</svg>
